<svg width="68" height="68" viewBox="0 0 68 68" fill="none" xmlns="http://www.w3.org/2000/svg">
<rect width="68" height="68" fill="#13161E"/>
<path d="M23.8203 59.6477L31.2497 60.3917L36.0981 59.6477L49.8418 60.3917H53.3846L54.362 58.3039C54.9117 55.2293 56.0967 49.0192 56.4388 48.7749C56.7809 48.5305 56.0927 42.972 55.7058 40.2232L50.9413 31.6716L44.1 24.0361L41.4123 21.3485L44.4054 19.2106L47.3985 16.2786L48.1315 13.0412L42.9394 10.3535C40.9033 10.2313 36.7455 9.98699 36.4035 9.98699C35.9759 9.98699 32.0666 9.37616 31.7612 9.37616C31.5168 9.37616 31.415 7.66583 31.3947 6.81067C28.2387 7.8898 21.7191 10.1092 20.8883 10.3535C20.0576 10.5978 19.3612 14.4054 19.1169 16.2786L20.8883 19.5771L23.8203 23.2421L12.3978 33.6262L9.52684 41.8725L10.8707 49.0803L14.4135 54.8221L23.8203 59.6477Z" fill="#3B1558"/>
<g style="mix-blend-mode:screen" opacity="0.7">
<path d="M22.5138 58.5982C1.3711 42.4682 25.2932 24.9881 25.2932 24.9881L24.5975 24.1185C23.5927 24.4084 21.4324 25.0924 20.8296 25.5098C20.076 26.0315 11.8444 35.1326 11.3227 35.7122C10.801 36.2919 8.83007 43.8278 8.7721 44.1177C8.71413 44.4075 13.6415 54.1463 14.3371 55.7694C14.8936 57.0679 21.4897 58.9653 22.5138 58.5982Z" fill="url(#paint0_linear_3291_6277)" style="mix-blend-mode:screen"/>
<path d="M26.3575 25.3428C29.4037 22.7796 25.4288 21.1636 26.8227 16.1149C25.5802 16.8849 23.0058 18.4933 22.6487 18.7663C22.2917 19.0393 22.885 20.2626 23.2263 20.8402L26.3575 25.3428Z" fill="url(#paint1_linear_3291_6277)" style="mix-blend-mode:screen"/>
</g>
<path d="M21.766 19.1392C21.9817 19.3241 23.2168 17.9324 23.8074 17.2134C24.2183 16.9695 25.1016 16.4662 25.3481 16.4046C25.6562 16.3276 28.699 14.9795 29.816 14.7869C30.7095 14.6328 30.9586 16.0323 30.9715 16.7512C31.2026 17.5472 31.8419 19.2548 32.5506 19.717C33.4365 20.2948 35.4394 18.446 36.3638 18.1763C37.2882 17.9067 41.3709 16.135 42.1412 16.0579C42.7575 15.9963 45.3509 16.4945 46.5706 16.7512C47.3281 15.6856 48.8431 13.4388 48.8431 12.9766C48.8431 12.3989 47.6491 12.5915 47.1484 11.8597C46.6476 11.1278 44.2981 9.8568 43.3737 9.8568C42.4493 9.8568 40.6006 10.0879 33.0899 9.8568C25.5792 9.6257 32.4351 8.85539 32.281 8.35467C32.127 7.85396 30.5093 6.73696 29.0842 6.92955C27.9441 7.08361 24.1669 9.43312 22.4208 10.5886C21.2525 12.5915 18.8927 16.6742 18.8003 16.9823C18.6847 17.3675 21.4964 18.9082 21.766 19.1392Z" fill="#1A0C2A"/>
<path d="M35.4298 60.5463C59.1632 54.6675 46.9071 29.4061 39.9487 26.6746H36.3638C34.4348 21.7843 38.4429 17.8635 38.4429 17.8635L40.5814 16.8729H42.1412L45.0541 18.1763L42.1412 21.114L43.4042 23.2589L53.1936 34.0932C54.3118 37.8696 56.5373 45.6974 56.4933 46.7973C56.4493 47.8972 55.5584 54.7717 55.1184 58.0715L53.1936 61.1513L35.4298 60.5463Z" fill="#1A0C2A"/>
<path d="M46.36 33.2131C46.36 33.2131 43.1419 36.0736 44.6743 44.0677" stroke="#1A0C2A" stroke-width="2" stroke-linecap="round"/>
<path d="M24.3495 23.7791C10.7642 29.257 3.2896 46.8263 16.9689 56.7572C20.6638 59.4396 25.3784 60.087 29.9438 60.1568L48.0439 60.4336C49.2595 60.4521 50.4707 60.5847 51.6615 60.8294V60.8294C53.131 61.1314 54.5368 60.084 54.7228 58.5954C56.1194 47.414 59.1407 37.6102 45.3483 26.5843" stroke="#704AB7" stroke-width="2.5"/>
<path d="M43.6726 44.017C40.9574 36.984 48.6363 30.3686 42.9857 23.5172C47.3178 29.4504 54.7814 29.5917 58.2895 28.7676" stroke="#704AB7" stroke-width="2.5" stroke-linecap="round"/>
<path d="M42.112 21.6515C44.5506 22.8829 43.3916 26.3355 39.77 25.5146" stroke="#704AB7" stroke-width="2.5"/>
<path d="M46.328 17.8141C43.6598 18.8907 42.0126 20.3096 42.0126 20.3096C43.0814 26.7699 32.2551 30.3371 26.3517 24.7285C24.7672 23.2231 23.6647 21.2474 21.9878 19.8455C21.0829 19.0889 20.4559 18.6749 20.4559 18.6749M46.328 17.8141C48.4558 15.8139 50.2509 11.7012 42.3144 9.90113C40.5633 9.50394 38.7462 9.7171 36.9688 9.97269C33.1516 10.5216 30.2387 9.97913 31.3757 8.74573C32.1138 7.94513 31.9669 6.67131 30.8862 6.80419C26.4501 7.3496 20.4365 9.27291 19.2983 15.6001C18.8571 18.0528 21.0693 20.0748 23.025 18.5302C24.0171 17.7466 24.9832 16.733 25.9919 15.8512C27.6497 14.4019 30.2942 14.353 30.9092 16.4674C31.253 17.6492 31.4684 18.8908 32.7532 19.312C38.0895 20.8567 37.0128 12.1969 46.328 17.8141Z" stroke="#704AB7" stroke-width="2.5"/>
<path d="M18.376 51.9962L19.7056 52.7639L19.7153 51.474C21.8184 52.5031 23.0376 51.917 23.0424 49.9737C23.0376 48.0584 21.7893 46.3226 20.0602 44.8757L19.7736 44.6317L19.7931 41.8387C20.439 42.3855 20.8325 43.0894 20.8907 43.8297L22.9064 44.9934C22.8821 43.123 21.6824 41.1012 19.8125 39.786L19.8222 38.4737L18.3517 37.6245L18.342 38.9257C16.4429 38.0424 15.4266 38.7793 15.4363 40.6974C15.4314 42.3883 16.3217 43.8726 18.0022 45.3083L18.376 45.6587L18.3517 48.6116C17.56 47.9806 17.2625 47.248 17.2091 46.2806L15.174 45.1056C15.2226 47.3995 16.3263 49.3042 18.3857 50.7007L18.376 51.9962ZM19.7348 49.4101L19.7542 46.8022C20.507 47.5116 20.915 48.1005 20.9199 48.7427C20.915 49.4185 20.4682 49.6653 19.7348 49.4101ZM18.3517 43.4686C17.3707 42.5125 17.2529 40.6209 18.3711 41.0009L18.3517 43.4686Z" fill="#704AB7"/>
<defs>
<linearGradient id="paint0_linear_3291_6277" x1="10.7352" y1="24.4205" x2="15.1537" y2="65.6936" gradientUnits="userSpaceOnUse">
<stop stop-color="#591536"/>
<stop offset="1" stop-color="#151C59" stop-opacity="0"/>
</linearGradient>
<linearGradient id="paint1_linear_3291_6277" x1="10.7352" y1="24.4205" x2="15.1537" y2="65.6936" gradientUnits="userSpaceOnUse">
<stop stop-color="#591536"/>
<stop offset="1" stop-color="#151C59" stop-opacity="0"/>
</linearGradient>
</defs>
</svg>
