<svg width="68" height="68" viewBox="0 0 68 68" fill="none" xmlns="http://www.w3.org/2000/svg">
<rect width="68" height="68" fill="#13161E"/>
<path d="M27.1286 24.3564L38.3746 30.8494L38.3746 41.179C38.3746 42.8358 37.2114 43.5074 35.7766 42.679L27.1286 37.6861L27.1286 24.3564Z" fill="url(#paint0_linear_3291_6251)"/>
<path d="M37.4153 43.3796L28.5949 38.2871C27.7302 37.7879 27.0292 36.5738 27.0292 35.5753L27.0292 25.5244C27.0292 24.5259 27.7302 24.1212 28.5949 24.6204L37.4153 29.7129C38.28 30.2121 38.981 31.4263 38.981 32.4247V37.4502" stroke="#704AB7" stroke-width="2"/>
<path d="M15.6458 35.6393L15.6458 11.167L34 9.52771L52.3542 32.3606V56.8329L34 58.4722L21.4959 42.917" stroke="#704AB7" stroke-width="2.5"/>
<path d="M16.6906 34.615L27.2775 33.9244M50.8711 32.3854L38.5469 33.1893" stroke="#704AB7" stroke-width="2.5"/>
<path d="M17.3558 12.8284L23.527 21.1092M50.2059 56.9083L44.2836 48.9615" stroke="#704AB7" stroke-width="2.5"/>
<path d="M33.0051 10.61V27.6227M33.0051 56.9082V40.3919" stroke="#704AB7" stroke-width="2.5"/>
<ellipse rx="5.40144" ry="5.5121" transform="matrix(0.866025 0.5 -2.20305e-08 1 34.3032 11.1739)" fill="#704AB7"/>
<ellipse rx="5.40144" ry="5.5121" transform="matrix(0.866025 0.5 -2.20305e-08 1 16.0021 12.6251)" fill="#704AB7"/>
<ellipse rx="5.40144" ry="5.5121" transform="matrix(0.866025 0.5 -2.20305e-08 1 14.8734 33.9052)" fill="#704AB7"/>
<ellipse rx="5.40144" ry="5.5121" transform="matrix(0.866025 0.5 -2.20305e-08 1 31.7233 56.721)" fill="#704AB7"/>
<ellipse rx="5.40144" ry="5.5121" transform="matrix(0.866025 0.5 -2.20305e-08 1 52.3624 56.721)" fill="#704AB7"/>
<ellipse rx="5.40144" ry="5.5121" transform="matrix(0.866025 0.5 -2.20305e-08 1 51.3353 31.809)" fill="#704AB7"/>
<ellipse rx="5.40144" ry="5.5121" transform="matrix(0.866025 0.5 -2.20305e-08 1 33.6968 11.3635)" fill="url(#paint1_linear_3291_6251)"/>
<ellipse rx="5.40144" ry="5.5121" transform="matrix(0.866025 0.5 -2.20305e-08 1 15.3958 12.8146)" fill="url(#paint2_linear_3291_6251)"/>
<ellipse rx="5.40144" ry="5.5121" transform="matrix(0.866025 0.5 -2.20305e-08 1 14.2671 34.0948)" fill="url(#paint3_linear_3291_6251)"/>
<ellipse rx="5.40144" ry="5.5121" transform="matrix(0.866025 0.5 -2.20305e-08 1 31.1169 56.9106)" fill="url(#paint4_linear_3291_6251)"/>
<ellipse rx="5.40144" ry="5.5121" transform="matrix(0.866025 0.5 -2.20305e-08 1 51.756 56.9106)" fill="url(#paint5_linear_3291_6251)"/>
<ellipse rx="5.40144" ry="5.5121" transform="matrix(0.866025 0.5 -2.20305e-08 1 50.7289 31.9986)" fill="url(#paint6_linear_3291_6251)"/>
<path d="M37.2921 13.4392C37.2921 15.8171 35.6618 16.7601 33.6968 15.6256C31.7318 14.4911 30.1016 11.6656 30.1016 9.28773C30.1016 6.90982 31.7318 5.96686 33.6968 7.10136C35.6618 8.23586 37.2921 11.0613 37.2921 13.4392Z" stroke="#704AB7" stroke-width="2.5"/>
<path d="M18.9911 14.8904C18.9911 17.2683 17.3608 18.2112 15.3958 17.0767C13.4308 15.9422 11.8005 13.1168 11.8005 10.7389C11.8005 8.361 13.4308 7.41803 15.3958 8.55253C17.3608 9.68703 18.9911 12.5124 18.9911 14.8904Z" stroke="#704AB7" stroke-width="2.5"/>
<path d="M17.8623 36.1705C17.8623 38.5484 16.2321 39.4914 14.2671 38.3569C12.3021 37.2224 10.6718 34.397 10.6718 32.0191C10.6718 29.6411 12.3021 28.6982 14.2671 29.8327C16.2321 30.9672 17.8623 33.7926 17.8623 36.1705Z" stroke="#704AB7" stroke-width="2.5"/>
<path d="M34.7122 58.9863C34.7122 61.3642 33.082 62.3072 31.1169 61.1727C29.1519 60.0382 27.5217 57.2128 27.5217 54.8349C27.5217 52.4569 29.1519 51.514 31.1169 52.6485C33.082 53.783 34.7122 56.6084 34.7122 58.9863Z" stroke="#704AB7" stroke-width="2.5"/>
<path d="M55.3513 58.9863C55.3513 61.3642 53.721 62.3072 51.756 61.1727C49.791 60.0382 48.1608 57.2128 48.1608 54.8349C48.1608 52.4569 49.791 51.514 51.756 52.6485C53.721 53.783 55.3513 56.6084 55.3513 58.9863Z" stroke="#704AB7" stroke-width="2.5"/>
<path d="M54.3242 34.0743C54.3242 36.4522 52.6939 37.3952 50.7289 36.2607C48.7639 35.1262 47.1337 32.3008 47.1337 29.9229C47.1337 27.545 48.7639 26.602 50.7289 27.7365C52.6939 28.871 54.3242 31.6964 54.3242 34.0743Z" stroke="#704AB7" stroke-width="2.5"/>
<path d="M35.1737 35.31C35.1737 35.8502 35.1152 36.307 34.9983 36.6802C34.8844 37.0551 34.7043 37.3279 34.4581 37.4985C34.2149 37.6674 33.9025 37.7269 33.5208 37.6771C33.1391 37.6238 32.682 37.4434 32.1495 37.136L30.6166 36.251L30.6166 29.2829L32.4034 30.3145C32.8652 30.581 33.2684 30.8814 33.6131 31.2155C33.9609 31.5478 34.2503 31.9192 34.4811 32.3297C34.712 32.7403 34.8844 33.1916 34.9983 33.6839C35.1152 34.178 35.1737 34.72 35.1737 35.31ZM33.9548 34.6915C33.9548 34.3148 33.9286 33.9638 33.8763 33.6386C33.824 33.3134 33.7347 33.013 33.6085 32.7376C33.4854 32.4604 33.3192 32.208 33.1099 31.9805C32.9005 31.7531 32.6405 31.5496 32.3296 31.3701L31.7524 31.0369L31.7524 35.8085L32.2511 36.0964C32.8082 36.418 33.2314 36.4705 33.5208 36.2536C33.8101 36.0368 33.9548 35.5161 33.9548 34.6915Z" fill="#704AB7"/>
<defs>
<linearGradient id="paint0_linear_3291_6251" x1="8.66651" y1="-14.7474" x2="30.6341" y2="58.2751" gradientUnits="userSpaceOnUse">
<stop stop-color="#A10BD2"/>
<stop offset="1" stop-color="#16182B"/>
</linearGradient>
<linearGradient id="paint1_linear_3291_6251" x1="-17.7346" y1="-23.5251" x2="13.9482" y2="18.3783" gradientUnits="userSpaceOnUse">
<stop stop-color="#A10BD2"/>
<stop offset="1" stop-color="#16182B"/>
</linearGradient>
<linearGradient id="paint2_linear_3291_6251" x1="-17.7346" y1="-23.5251" x2="13.9482" y2="18.3783" gradientUnits="userSpaceOnUse">
<stop stop-color="#A10BD2"/>
<stop offset="1" stop-color="#16182B"/>
</linearGradient>
<linearGradient id="paint3_linear_3291_6251" x1="-17.7346" y1="-23.5251" x2="13.9482" y2="18.3783" gradientUnits="userSpaceOnUse">
<stop stop-color="#A10BD2"/>
<stop offset="1" stop-color="#16182B"/>
</linearGradient>
<linearGradient id="paint4_linear_3291_6251" x1="-17.7346" y1="-23.5251" x2="13.9482" y2="18.3783" gradientUnits="userSpaceOnUse">
<stop stop-color="#A10BD2"/>
<stop offset="1" stop-color="#16182B"/>
</linearGradient>
<linearGradient id="paint5_linear_3291_6251" x1="-17.7346" y1="-23.5251" x2="13.9482" y2="18.3783" gradientUnits="userSpaceOnUse">
<stop stop-color="#A10BD2"/>
<stop offset="1" stop-color="#16182B"/>
</linearGradient>
<linearGradient id="paint6_linear_3291_6251" x1="-17.7346" y1="-23.5251" x2="13.9482" y2="18.3783" gradientUnits="userSpaceOnUse">
<stop stop-color="#A10BD2"/>
<stop offset="1" stop-color="#16182B"/>
</linearGradient>
</defs>
</svg>
