<svg width="68" height="68" viewBox="0 0 68 68" fill="none" xmlns="http://www.w3.org/2000/svg">
<rect width="68" height="68" fill="#13161E"/>
<rect width="36.2171" height="5.7265" transform="matrix(0.866025 0.5 -2.20305e-08 1 10.2237 40.3068)" fill="#1A0C2A"/>
<rect width="36.1697" height="29.3899" transform="matrix(0.866025 0.5 -0.866025 0.5 35.6761 25.5981)" fill="#3B1558"/>
<path style="mix-blend-mode:screen" opacity="0.7" d="M43.6692 57.2747L43.1432 57.6401C42.8265 57.86 42.4117 57.8783 42.0769 57.6871L12.6433 40.8796C11.9651 40.4923 12.0188 39.4974 12.7348 39.1854C13.0033 39.0684 13.3108 39.082 13.568 39.2221L43.5773 55.5753C44.2305 55.9313 44.2802 56.8504 43.6692 57.2747Z" fill="url(#paint0_linear_3291_6287)"/>
<rect x="-5.96046e-08" y="1" width="23.6657" height="5.98797" rx="2.99399" transform="matrix(0.866025 0.5 -0.866025 0.5 30.8678 35.3701)" fill="#1A0C2A" stroke="#704AB7" stroke-width="2"/>
<rect width="29.3425" height="5.66856" transform="matrix(0.866025 -0.5 2.20305e-08 1 41.5887 58.3779)" fill="#1A0C2A"/>
<path d="M67 43.8739L35.5527 26L10 40.5236L10 46.1969L41.4885 64L67 49.4999V43.8739Z" stroke="#704AB7" stroke-width="2"/>
<path d="M42 64V59" stroke="#704AB7" stroke-width="2"/>
<path d="M67 43.374L41.4473 58L10 40" stroke="#704AB7" stroke-width="2"/>
<rect width="21.6203" height="15.8963" transform="matrix(0.866025 0.5 -2.20305e-08 1 28.5194 20.0588)" fill="#1A0C2A"/>
<rect x="0.866025" y="1.5" width="21.679" height="15.8883" transform="matrix(0.866025 0.5 -2.20305e-08 1 27.804 19.1457)" stroke="#704AB7" stroke-width="2"/>
<path d="M23.5341 16.0317L12.9707 9.05098C9.24151 8.3112 6.20369 15.83 9.24154 18.2002L18.1261 22.9456C18.3012 23.039 18.4549 23.1679 18.5776 23.3238L21.105 26.5373C21.6284 27.2028 22.2821 27.7544 23.0261 28.1585L30.8534 32.4095C31.467 32.7427 32.2338 32.5475 32.6134 31.9614C32.9803 31.395 32.8675 30.644 32.3504 30.2104L27.2168 25.9048C26.6149 25.4 26.4319 24.5512 26.7725 23.8432L28.5447 20.1592L39.4998 26.4862L41 28.2772L40.4345 25.9968C40.293 25.4259 40.0273 24.8932 39.6563 24.4368L34.2755 17.8155C33.7737 17.1981 33.0367 16.8185 32.2426 16.7686L24.2303 16.265C23.9818 16.2494 23.7418 16.1689 23.5341 16.0317Z" fill="#3E155B"/>
<path style="mix-blend-mode:screen" opacity="0.7" d="M21.6831 17.5412L11.9341 10.3364C11.5138 10.0257 11.58 9.37821 12.0546 9.15909C12.269 9.06007 12.5193 9.07805 12.7174 9.20672L22.1045 15.3037C22.2188 15.378 22.3451 15.4277 22.4795 15.4506C25.5899 15.9792 31.7249 17.0133 32.9196 17.1818C34.4459 17.3971 39.1944 23.8565 39.5336 24.3301C39.5459 24.3472 39.5578 24.3667 39.5696 24.3884C40.0092 25.1999 38.7829 25.7638 38.1354 25.1062L32.2753 19.1543C32.116 18.9925 31.9064 18.8897 31.6809 18.8629L22.1593 17.73C21.9869 17.7095 21.8228 17.6444 21.6831 17.5412Z" fill="url(#paint1_linear_3291_6287)"/>
<path d="M41 27.9796L40.4546 25.8139C40.3001 25.2006 40.0025 24.6327 39.586 24.1568L33.6965 17.4258C33.1825 16.8384 32.4501 16.4875 31.6703 16.455L24.2414 16.1456C23.9859 16.135 23.738 16.0558 23.5236 15.9163L12.9707 9.05019C9.24151 8.32183 6.20369 15.7246 9.24154 18.0582L18.0918 22.7122C18.2895 22.8162 18.4635 22.9599 18.6029 23.1344L21.293 26.5019C21.6934 27.0031 22.1799 27.4289 22.7297 27.7594L29.8224 32.0233C30.7015 32.5518 31.8442 32.2261 32.3126 31.3135V31.3135C32.704 30.5507 32.4934 29.6171 31.8124 29.0963L27.4723 25.7769C26.7671 25.2376 26.6351 24.2276 27.1779 23.5251L29.4055 20.6422" stroke="#704AB7" stroke-width="2"/>
<path d="M36.9962 37.7356L37.9427 38.2821L37.9427 39.4274L36.9962 38.8809L36.9962 37.7356Z" fill="#704AB7"/>
<path d="M36.9962 29.4384L37.9427 29.9848L37.9427 31.2418L36.9962 30.6954L36.9962 29.4384Z" fill="#704AB7"/>
<path fill-rule="evenodd" clip-rule="evenodd" d="M37.4814 37.3297C37.8157 37.5227 38.1362 37.555 38.3726 37.4194C38.6089 37.2839 38.7417 36.9916 38.7417 36.6069L39.5818 37.092C39.5818 37.7331 39.3605 38.2202 38.9667 38.4462C38.5727 38.6721 38.0385 38.6183 37.4814 38.2967C36.9244 37.9751 36.3901 37.412 35.9962 36.7312C35.6023 36.0504 35.381 35.3078 35.381 34.6666L36.2212 35.1517C36.2212 35.5364 36.354 35.982 36.5903 36.3904C36.8266 36.7989 37.1472 37.1368 37.4814 37.3297Z" fill="#704AB7"/>
<path fill-rule="evenodd" clip-rule="evenodd" d="M37.4585 34.3435C38.1155 34.7228 38.6481 34.4173 38.6481 33.6612C38.6481 32.9051 38.1155 31.9846 37.4585 31.6053C36.8015 31.226 36.269 31.5315 36.269 32.2876C36.269 33.0438 36.8015 33.9642 37.4585 34.3435ZM37.4585 35.3866C38.616 36.0549 39.5544 35.5167 39.5544 34.1845C39.5544 32.8523 38.616 31.2305 37.4585 30.5622C36.301 29.8939 35.3626 30.4322 35.3626 31.7644C35.3626 33.0966 36.301 34.7183 37.4585 35.3866Z" fill="#704AB7"/>
<defs>
<linearGradient id="paint0_linear_3291_6287" x1="14.8306" y1="42.4193" x2="15.3101" y2="59.5922" gradientUnits="userSpaceOnUse">
<stop stop-color="#591536"/>
<stop offset="1" stop-color="#151C59" stop-opacity="0"/>
</linearGradient>
<linearGradient id="paint1_linear_3291_6287" x1="14.0344" y1="12.5152" x2="14.552" y2="30.1684" gradientUnits="userSpaceOnUse">
<stop stop-color="#591536"/>
<stop offset="1" stop-color="#151C59" stop-opacity="0"/>
</linearGradient>
</defs>
</svg>
