<svg width="68" height="68" viewBox="0 0 68 68" fill="none" xmlns="http://www.w3.org/2000/svg">
<g clip-path="url(#clip0_3291_6306)">
<rect width="68" height="68" fill="#13161E"/>
<path d="M13.0102 43.5073L41.4756 59.9418C44.287 61.5649 46.0441 59.0651 44.6384 55.4422L46.3176 58.09L53.3085 53.7036L55.4331 49.5227L39.5323 10.7986L38.1615 9.77048L27.8808 13.1975L24.0801 15.1075L9.84741 35.3556C8.44172 37.3554 10.1988 41.8841 13.0102 43.5073Z" fill="url(#paint0_linear_3291_6306)"/>
<path style="mix-blend-mode:screen" opacity="0.7" d="M9.38282 35.302C8.67751 35.6867 9.67669 38.6148 10.2644 40.0308L13.3573 43.7546L43.3542 60.7963L44.4845 58.3183L13.9503 39.9397C12.9878 39.3603 12.6911 38.1021 13.2935 37.1538L26.991 15.5903L25.5728 14.4634C20.47 21.2493 10.0881 34.9173 9.38282 35.302Z" fill="url(#paint1_linear_3291_6306)"/>
<path d="M29.1245 16.9633L25.6984 13.6966L36.5343 10.2705L39.0042 11.0674L54.6206 48.5148V51.5425L48.3262 57.1994L45.6173 58.7133L29.1245 16.9633Z" fill="#1A0C2A"/>
<path d="M44.4312 59.9415L53.5409 53.4692C55.0695 52.3831 55.6385 50.3808 54.9093 48.6531L39.2899 11.6438C38.6455 10.117 36.8852 9.4019 35.3586 10.0467L24.9334 14.4503" stroke="#704AB7" stroke-width="2.5"/>
<path d="M24.0801 15.107C25.4858 13.1072 29 15.1361 30.4057 18.7591L44.6384 55.4417C46.0441 59.0647 44.287 61.5644 41.4756 59.9413L13.0102 43.5068C10.1988 41.8836 8.44172 37.3549 9.84741 35.3551L24.0801 15.107Z" stroke="#704AB7" stroke-width="2.5"/>
<path d="M24.274 24.1039C24.257 23.3585 24.5543 23.1623 25.1659 23.5154L27.2044 24.6924C27.816 25.0455 28.1132 25.5849 28.0962 26.3107L27.7522 38.9701C27.7353 39.5978 27.4592 39.7572 26.9241 39.4483L25.4462 38.595C24.9111 38.286 24.635 37.8079 24.618 37.1606L24.274 24.1039ZM25.2168 44.6415C24.6223 44.2983 24.325 43.7588 24.325 43.0232L24.325 41.0519C24.325 40.3163 24.6223 40.1201 25.2168 40.4634L27.1534 41.5815C27.748 41.9248 28.0453 42.4642 28.0453 43.1998L28.0453 45.1712C28.0453 45.9067 27.748 46.1029 27.1534 45.7596L25.2168 44.6415Z" fill="#704AB7"/>
</g>
<defs>
<linearGradient id="paint0_linear_3291_6306" x1="-66.2954" y1="-153.518" x2="-11.22" y2="123.838" gradientUnits="userSpaceOnUse">
<stop stop-color="#A10BD2"/>
<stop offset="1" stop-color="#16182B"/>
</linearGradient>
<linearGradient id="paint1_linear_3291_6306" x1="26.8124" y1="14.4634" x2="31.467" y2="62.4965" gradientUnits="userSpaceOnUse">
<stop stop-color="#591536"/>
<stop offset="1" stop-color="#151C59" stop-opacity="0"/>
</linearGradient>
<clipPath id="clip0_3291_6306">
<rect width="68" height="68" fill="white"/>
</clipPath>
</defs>
</svg>
