<svg width="356" height="367" viewBox="0 0 356 367" fill="none" xmlns="http://www.w3.org/2000/svg">
<path d="M62 151H97L139 85.5H264.5V151H342.5" stroke="black"/>
<path d="M65.5 164H110L147.5 104H340.5" stroke="black"/>
<path d="M203 118L119 14" stroke="black" stroke-width="2"/>
<path d="M204 183V269H271" stroke="black" stroke-width="2"/>
<path d="M63 215.5L101 253.5L139 215.5H264.5V146H342.5" stroke="black"/>
<path d="M204 184H346.5" stroke="black" stroke-width="2"/>
<path d="M116.5 355.5L162.5 309.5L343 309.5" stroke="black" stroke-width="2"/>
<path d="M49.5 80L116.5 13H331.5" stroke="black" stroke-width="2"/>
<path d="M49.5 287L116.5 354H331.5" stroke="black" stroke-width="2"/>
<circle cx="343" cy="13" r="12" fill="black" stroke="black" stroke-width="2"/>
<circle cx="343" cy="354" r="12" fill="black" stroke="black" stroke-width="2"/>
<path d="M64 183.5H203.5" stroke="black" stroke-width="2"/>
<path d="M203 118L203 183" stroke="black" stroke-width="2"/>
<path d="M203 118H276" stroke="black" stroke-width="2"/>
<circle cx="203" cy="118" r="8" fill="black" stroke="black" stroke-width="2"/>
<circle cx="117" cy="13" r="8" fill="black" stroke="black" stroke-width="2"/>
<circle cx="271" cy="269" r="8" fill="black" stroke="black" stroke-width="2"/>
<circle cx="343" cy="310" r="8" fill="black" stroke="black" stroke-width="2"/>
<circle cx="276" cy="118" r="8" fill="black" stroke="black" stroke-width="2"/>
<circle cx="118" cy="354" r="8" fill="black" stroke="black" stroke-width="2"/>
<circle cx="204" cy="184" r="12" fill="black" stroke="black" stroke-width="2"/>
<circle cx="343" cy="183" r="12" fill="black" stroke="black" stroke-width="2"/>
<path d="M67 201H170.5V244.5H338.5" stroke="black"/>
<path d="M1 278L87 365" stroke="black"/>
<path d="M48 118L120.5 45.5H342" stroke="black"/>
<path d="M204 231H145L107.5 268.5" stroke="black" stroke-width="2"/>
<circle cx="108" cy="269" r="8" fill="black" stroke="black" stroke-width="2"/>
</svg>
