<svg viewBox="0 0 426 484" fill="none" xmlns="http://www.w3.org/2000/svg">
<path d="M375.029 122.993C372.437 121.771 360.931 120.333 358.103 119.87C348.583 118.04 333.327 118.697 320.187 119.087C314.224 119.248 308.376 119.501 303.085 119.73C297.508 119.971 292.55 120.186 288.727 120.237H288.557C289.167 122.327 289.557 123.677 289.557 123.677C289.557 123.677 298.247 127.397 298.697 132.327L308.387 138.667L310.387 141.667C312.841 143.832 315.194 144.795 317.186 145.61C320.786 147.083 323.203 148.072 322.887 154.807L322.797 154.897C328.687 160.733 328.497 165.588 329.194 169.97C329.998 175.032 334.039 198.673 335.94 209.534C339.605 208.902 357.696 165.697 359.389 160.045C360.856 155.145 364.015 144.289 365.973 140.052C367.667 136.377 372.466 126.125 375.029 122.993Z" fill="#270E4A"/>
<mask id="mask0_3169_6191" style="mask-type:alpha" maskUnits="userSpaceOnUse" x="225" y="58" width="68" height="50">
<path d="M285.007 106.197C284.63 106.888 284.1 107.483 283.457 107.937C283.352 107.179 283.001 106.476 282.457 105.937C282.457 105.937 278.587 107.868 276.087 107.458L275.957 106.458C280.957 103.458 279.957 92.4575 272.957 96.4575C272.957 96.4575 269.957 95.4575 267.457 90.4575C266.89 92.5871 266.89 94.8279 267.457 96.9575C267.457 96.9575 260.957 96.4575 258.457 90.9575C258.68 92.6658 258.366 94.4011 257.56 95.9236C256.754 97.4461 255.495 98.6809 253.957 99.4575C254.617 96.9575 254.057 91.2575 246.457 88.4575C246.457 88.4575 245.457 92.4575 246.457 94.9575C239.457 94.9575 236.957 91.4575 236.957 91.4575C236.374 94.6627 236.216 97.9309 236.487 101.178C236.527 101.667 236.607 102.152 236.727 102.627H236.697C231.437 103.627 228.937 101.928 228.937 101.928C232.317 98.5075 230.827 91.3375 230.827 91.3375C230.413 92.3001 229.737 93.1272 228.876 93.7247C228.015 94.3223 227.004 94.6662 225.957 94.7175C228.617 88.8975 223.557 82.8975 232.077 78.7175C231.802 77.8825 231.728 76.9941 231.862 76.125C231.996 75.256 232.333 74.431 232.847 73.7175C236.717 74.4375 241.097 72.3175 242.137 69.0075C242.137 69.0075 238.617 67.1375 235.777 68.2675C237.777 60.8275 246.557 62.5975 252.677 64.0775C251.187 62.3975 252.677 58.6875 252.677 58.6875C258.357 64.7575 264.907 58.0175 270.477 66.5075C271.977 64.5075 270.477 61.0075 270.477 61.0075C275.977 63.0075 276.477 69.0075 276.477 69.0075C277.637 67.8375 281.177 66.1075 285.977 68.5075C285.147 68.8931 284.407 69.4483 283.804 70.1371C283.201 70.826 282.749 71.6335 282.477 72.5075C284.463 73.0519 286.261 74.1333 287.672 75.6329C289.084 77.1325 290.054 78.9922 290.477 81.0075C288.895 79.8404 286.933 79.3055 284.977 79.5075C284.977 79.5075 286.977 86.0075 292.477 87.5075C292.477 87.5075 291.477 91.0075 286.977 90.0075C286.977 90.0075 289.977 96.5075 287.977 102.507C287.754 101.996 287.41 101.547 286.974 101.199C286.539 100.851 286.025 100.613 285.477 100.507C285.989 102.401 285.823 104.414 285.007 106.197Z" fill="#FECB7C"/>
</mask>
<g mask="url(#mask0_3169_6191)">
<path d="M285.007 106.197C284.63 106.888 284.1 107.483 283.457 107.937C283.352 107.179 283.001 106.476 282.457 105.937C282.457 105.937 278.587 107.868 276.087 107.458L275.957 106.458C280.957 103.458 279.957 92.4575 272.957 96.4575C272.957 96.4575 269.957 95.4575 267.457 90.4575C266.89 92.5871 266.89 94.8279 267.457 96.9575C267.457 96.9575 260.957 96.4575 258.457 90.9575C258.68 92.6658 258.366 94.4011 257.56 95.9236C256.754 97.4461 255.495 98.6809 253.957 99.4575C254.617 96.9575 254.057 91.2575 246.457 88.4575C246.457 88.4575 245.457 92.4575 246.457 94.9575C239.457 94.9575 236.957 91.4575 236.957 91.4575C236.374 94.6627 236.216 97.9309 236.487 101.178C236.527 101.667 236.607 102.152 236.727 102.627H236.697C231.437 103.627 228.937 101.928 228.937 101.928C232.317 98.5075 230.827 91.3375 230.827 91.3375C230.413 92.3001 229.737 93.1272 228.876 93.7247C228.015 94.3223 227.004 94.6662 225.957 94.7175C228.617 88.8975 223.557 82.8975 232.077 78.7175C231.802 77.8825 231.728 76.9941 231.862 76.125C231.996 75.256 232.333 74.431 232.847 73.7175C236.717 74.4375 241.097 72.3175 242.137 69.0075C242.137 69.0075 238.617 67.1375 235.777 68.2675C237.777 60.8275 246.557 62.5975 252.677 64.0775C251.187 62.3975 252.677 58.6875 252.677 58.6875C258.357 64.7575 264.907 58.0175 270.477 66.5075C271.977 64.5075 270.477 61.0075 270.477 61.0075C275.977 63.0075 276.477 69.0075 276.477 69.0075C277.637 67.8375 281.177 66.1075 285.977 68.5075C285.147 68.8931 284.407 69.4483 283.804 70.1371C283.201 70.826 282.749 71.6335 282.477 72.5075C284.463 73.0519 286.261 74.1333 287.672 75.6329C289.084 77.1325 290.054 78.9922 290.477 81.0075C288.895 79.8404 286.933 79.3055 284.977 79.5075C284.977 79.5075 286.977 86.0075 292.477 87.5075C292.477 87.5075 291.477 91.0075 286.977 90.0075C286.977 90.0075 289.977 96.5075 287.977 102.507C287.754 101.996 287.41 101.547 286.974 101.199C286.539 100.851 286.025 100.613 285.477 100.507C285.989 102.401 285.823 104.414 285.007 106.197Z" fill="#FECB7C"/>
<path d="M244.218 61.1155C252.278 65.9154 250.417 76.4067 242.804 81.2932C235.19 86.1797 222.484 86.2499 214.425 81.4499C206.366 76.6499 206.005 68.7975 213.618 63.9109C221.232 59.0244 236.159 56.3155 244.218 61.1155Z" fill="url(#paint0_linear_3169_6191)"/>
<path d="M245.239 60.4498C268.716 73.3532 234.104 98.2406 208.71 84.2832C196.905 77.7951 182.659 83.368 193.838 75.6345C205.017 67.9011 233.435 53.9616 245.239 60.4498Z" stroke="url(#paint1_linear_3169_6191)" stroke-width="1.82365"/>
<path opacity="0.78" d="M329.343 87.9413L284.872 64.0517C284.872 82.2703 278.67 91.7026 254.249 94.1576L251.104 133.964L262.364 128.407L294.45 141.006L342.53 126.638L346.384 107.022L329.343 87.9413Z" fill="#B78D55"/>
<path opacity="0.78" d="M250.74 91.2113C275.161 88.7563 281.363 79.324 281.363 61.1054" stroke="#B78D55" stroke-width="2"/>
</g>
<mask id="mask1_3169_6191" style="mask-type:alpha" maskUnits="userSpaceOnUse" x="233" y="88" width="57" height="64">
<path d="M236.727 102.608C236.738 102.676 233.285 105.463 233.307 105.528C233.307 105.528 232.199 109.818 234.428 112.915L237.96 115.983C241.654 117.812 240.608 108.673 240.697 108.888L243.847 107.978C243.402 106.497 243.402 104.918 243.847 103.438C243.98 102.754 244.289 102.116 244.744 101.589C246.151 99.9557 240.548 106.803 245.367 110.852C254.072 116.879 244.957 113.135 244.057 108.608C243.987 108.398 243.917 108.188 243.867 107.978L240.717 108.888C240.863 109.175 240.932 109.495 240.917 109.818L240.637 115.818L240.497 118.938C240.497 119.203 240.603 119.457 240.79 119.645C240.978 119.832 241.232 119.938 241.497 119.938H244.957L244.567 123.018C244.537 123.268 244.603 123.52 244.752 123.724C244.9 123.928 245.12 124.069 245.367 124.118L246.957 124.438V126.778C246.956 126.964 247.007 127.147 247.104 127.306C247.201 127.465 247.341 127.594 247.507 127.678L248.957 128.398L253.747 134.158C253.865 134.303 253.995 134.437 254.137 134.558C254.875 135.235 255.841 135.611 256.842 135.611C257.844 135.611 258.809 135.235 259.547 134.558L261.417 132.827L272.167 122.827C273.802 121.308 275.05 119.42 275.806 117.32C276.35 115.811 276.629 114.224 276.636 112.63C276.634 114.238 276.355 115.839 275.806 117.36C275.05 119.46 273.802 121.348 272.167 122.868L261.417 132.868C263.652 137.19 260.793 139.436 257.367 142.127C255.705 143.433 253.909 144.844 252.497 146.648L252.397 146.768C252.65 146.955 252.887 147.163 253.107 147.387L255.167 149.467C255.676 149.979 256.282 150.386 256.949 150.663C257.615 150.94 258.33 151.083 259.052 151.083C259.774 151.083 260.489 150.94 261.156 150.663C261.823 150.386 262.428 149.979 262.937 149.467L264.227 148.178C264.782 147.634 265.449 147.218 266.181 146.961C266.914 146.703 267.694 146.61 268.467 146.688C269.621 146.788 270.741 146.858 271.827 146.898V146.777C271.827 146.777 281.647 139.258 287.717 131.348C289.291 129.175 289.948 126.47 289.547 123.818L289.567 123.658C289.567 123.658 289.137 122.308 288.567 120.218C287.587 116.668 286.007 110.908 285.007 106.218C284.63 106.908 284.1 107.503 283.457 107.958C283.352 107.199 283.001 106.496 282.457 105.958C282.457 105.958 278.593 107.885 276.093 107.478L275.957 106.438C280.957 103.438 279.957 92.4375 272.957 96.4375C272.957 96.4375 269.957 95.4375 267.457 90.4375C266.89 92.5671 266.89 94.8079 267.457 96.9375C267.457 96.9375 260.957 96.4375 258.457 90.9375C258.68 92.6459 258.366 94.3811 257.56 95.9036C256.754 97.4261 255.495 98.6609 253.957 99.4375C254.617 96.9375 254.057 91.2375 246.457 88.4375C246.457 88.4375 245.457 92.4375 246.457 94.9375C239.457 94.9375 236.957 91.4375 236.957 91.4375C236.374 94.6427 236.216 97.9109 236.487 101.158C236.527 101.647 236.607 102.132 236.727 102.608Z" fill="url(#paint2_linear_3169_6191)"/>
</mask>
<g mask="url(#mask1_3169_6191)">
<path d="M236.727 102.608C236.738 102.676 233.285 105.463 233.307 105.528C233.307 105.528 232.199 109.818 234.428 112.915L237.96 115.983C241.654 117.812 240.608 108.673 240.697 108.888L243.847 107.978C243.402 106.497 243.402 104.918 243.847 103.438C243.98 102.754 244.289 102.116 244.744 101.589C246.151 99.9557 240.548 106.803 245.367 110.852C254.072 116.879 244.957 113.135 244.057 108.608C243.987 108.398 243.917 108.188 243.867 107.978L240.717 108.888C240.863 109.175 240.932 109.495 240.917 109.818L240.637 115.818L240.497 118.938C240.497 119.203 240.603 119.457 240.79 119.645C240.978 119.832 241.232 119.938 241.497 119.938H244.957L244.567 123.018C244.537 123.268 244.603 123.52 244.752 123.724C244.9 123.928 245.12 124.069 245.367 124.118L246.957 124.438V126.778C246.956 126.964 247.007 127.147 247.104 127.306C247.201 127.465 247.341 127.594 247.507 127.678L248.957 128.398L253.747 134.158C253.865 134.303 253.995 134.437 254.137 134.558C254.875 135.235 255.841 135.611 256.842 135.611C257.844 135.611 258.809 135.235 259.547 134.558L261.417 132.827L272.167 122.827C273.802 121.308 275.05 119.42 275.806 117.32C276.35 115.811 276.629 114.224 276.636 112.63C276.634 114.238 276.355 115.839 275.806 117.36C275.05 119.46 273.802 121.348 272.167 122.868L261.417 132.868C263.652 137.19 260.793 139.436 257.367 142.127C255.705 143.433 253.909 144.844 252.497 146.648L252.397 146.768C252.65 146.955 252.887 147.163 253.107 147.387L255.167 149.467C255.676 149.979 256.282 150.386 256.949 150.663C257.615 150.94 258.33 151.083 259.052 151.083C259.774 151.083 260.489 150.94 261.156 150.663C261.823 150.386 262.428 149.979 262.937 149.467L264.227 148.178C264.782 147.634 265.449 147.218 266.181 146.961C266.914 146.703 267.694 146.61 268.467 146.688C269.621 146.788 270.741 146.858 271.827 146.898V146.777C271.827 146.777 281.647 139.258 287.717 131.348C289.291 129.175 289.948 126.47 289.547 123.818L289.567 123.658C289.567 123.658 289.137 122.308 288.567 120.218C287.587 116.668 286.007 110.908 285.007 106.218C284.63 106.908 284.1 107.503 283.457 107.958C283.352 107.199 283.001 106.496 282.457 105.958C282.457 105.958 278.593 107.885 276.093 107.478L275.957 106.438C280.957 103.438 279.957 92.4375 272.957 96.4375C272.957 96.4375 269.957 95.4375 267.457 90.4375C266.89 92.5671 266.89 94.8079 267.457 96.9375C267.457 96.9375 260.957 96.4375 258.457 90.9375C258.68 92.6459 258.366 94.3811 257.56 95.9036C256.754 97.4261 255.495 98.6609 253.957 99.4375C254.617 96.9375 254.057 91.2375 246.457 88.4375C246.457 88.4375 245.457 92.4375 246.457 94.9375C239.457 94.9375 236.957 91.4375 236.957 91.4375C236.374 94.6427 236.216 97.9109 236.487 101.158C236.527 101.647 236.607 102.132 236.727 102.608Z" fill="url(#paint3_linear_3169_6191)"/>
<path d="M297.784 104.148C279.06 103.203 290.565 122.482 270.625 132.696C266.079 135.024 262.819 139.255 260.503 143.806C257.551 149.607 252.502 150.807 247.762 149.669C239.335 147.644 240.817 137.155 247.025 131.108L251.247 133.198L256.985 135.716L260.018 133.977L273.994 120.739L276.986 114.96L276.447 106.119L286.157 98.027C286.658 96.5035 306.513 89.4462 297.784 104.148Z" fill="url(#paint4_linear_3169_6191)"/>
<path d="M282.579 98.6895L284.268 94.8358C285.035 93.0838 283.2 91.3266 281.483 92.1691L274.873 95.4119L252.812 103.801L253.869 105.914L273.568 98.954C275.48 102.704 280.89 102.545 282.579 98.6895Z" fill="url(#paint5_linear_3169_6191)"/>
<path d="M254.242 108.337C254.387 109.497 253.62 112.252 249.395 113.992C247.852 114.627 246.282 113.796 244.927 112.457C243.724 111.268 242.122 110.47 240.446 110.699V109.394L243.18 107.965L246.039 111.072C250.513 112.812 253.372 109.974 254.242 108.337Z" fill="url(#paint6_linear_3169_6191)"/>
</g>
<mask id="mask2_3169_6191" style="mask-type:alpha" maskUnits="userSpaceOnUse" x="232" y="100" width="22" height="17">
<path d="M243.867 103.448C243.422 104.928 243.422 106.507 243.867 107.988C243.917 108.188 243.987 108.398 244.077 108.618C244.636 110.291 245.715 111.742 247.157 112.758C247.691 113.206 248.332 113.507 249.017 113.631C249.702 113.755 250.408 113.698 251.065 113.466C251.722 113.234 252.306 112.834 252.761 112.306C253.216 111.779 253.525 111.141 253.657 110.458C254.213 108.412 253.996 106.233 253.047 104.338C252.455 103.054 251.53 101.952 250.367 101.148C249.834 100.699 249.193 100.398 248.508 100.274C247.822 100.15 247.116 100.207 246.46 100.439C245.803 100.671 245.218 101.071 244.764 101.599C244.309 102.127 244 102.764 243.867 103.448Z" fill="url(#paint7_linear_3169_6191)"/>
<path d="M240.897 109.818C240.911 109.496 240.843 109.175 240.697 108.888C240.6 108.698 240.467 108.528 240.307 108.388L239.627 107.708C238.269 106.373 237.28 104.709 236.757 102.878C236.199 102.816 235.636 102.91 235.127 103.148C234.51 103.459 233.998 103.946 233.657 104.548C233.232 105.3 232.976 106.136 232.907 106.998C232.815 108.003 232.893 109.018 233.137 109.998C233.379 111.027 233.788 112.01 234.347 112.908C234.844 113.743 235.491 114.479 236.257 115.078C236.883 115.579 237.621 115.922 238.407 116.078C239.055 116.193 239.723 116.102 240.317 115.818H240.617L240.897 109.818Z" fill="url(#paint8_linear_3169_6191)"/>
</mask>
<g mask="url(#mask2_3169_6191)">
<path d="M243.867 103.448C243.422 104.928 243.422 106.507 243.867 107.988C243.917 108.188 243.987 108.398 244.077 108.618C244.636 110.291 245.715 111.742 247.157 112.758C247.691 113.206 248.332 113.507 249.017 113.631C249.702 113.755 250.408 113.698 251.065 113.466C251.722 113.234 252.306 112.834 252.761 112.306C253.216 111.779 253.525 111.141 253.657 110.458C254.213 108.412 253.996 106.233 253.047 104.338C252.455 103.054 251.53 101.952 250.367 101.148C249.834 100.699 249.193 100.398 248.508 100.274C247.822 100.15 247.116 100.207 246.46 100.439C245.803 100.671 245.218 101.071 244.764 101.599C244.309 102.127 244 102.764 243.867 103.448Z" fill="url(#paint9_linear_3169_6191)"/>
<path d="M240.897 109.818C240.911 109.496 240.843 109.175 240.697 108.888C240.6 108.698 240.467 108.528 240.307 108.388L239.627 107.708C238.269 106.373 237.28 104.709 236.757 102.878C236.199 102.816 235.636 102.91 235.127 103.148C234.51 103.459 233.998 103.946 233.657 104.548C233.232 105.3 232.976 106.136 232.907 106.998C232.815 108.003 232.893 109.018 233.137 109.998C233.379 111.027 233.788 112.01 234.347 112.908C234.844 113.743 235.491 114.479 236.257 115.078C236.883 115.579 237.621 115.922 238.407 116.078C239.055 116.193 239.723 116.102 240.317 115.818H240.617L240.897 109.818Z" fill="url(#paint10_linear_3169_6191)"/>
<rect width="2.71273" height="13.7632" transform="matrix(-0.989932 -0.141542 -0.0574602 0.998348 247.36 100.06)" fill="url(#paint11_linear_3169_6191)"/>
<rect width="2.71273" height="13.7632" transform="matrix(-0.989932 -0.141542 -0.0574602 0.998348 236.346 102.821)" fill="url(#paint12_linear_3169_6191)"/>
<rect width="1.72821" height="13.7632" transform="matrix(-0.989932 -0.141542 -0.0574602 0.998348 250.25 100.594)" fill="url(#paint13_linear_3169_6191)"/>
<rect width="1.72821" height="13.7632" transform="matrix(-0.989932 -0.141542 -0.0574602 0.998348 239.235 103.354)" fill="url(#paint14_linear_3169_6191)"/>
</g>
<mask id="mask3_3169_6191" style="mask-type:alpha" maskUnits="userSpaceOnUse" x="86" y="191" width="147" height="104">
<path d="M101.307 274.567C101.307 274.567 114.507 277.417 130.907 280.987C151.467 285.487 177.067 291.097 187.977 293.567C191.183 294.316 193.122 294.806 193.297 294.917L193.307 294.987L232.567 271.587L232.567 269.317L207.177 266.067L205.837 266.617C205.837 266.617 200.787 270.217 198.027 267.417C196.637 267.867 196.007 267.617 194.887 266.617C194.403 266.888 193.85 267.012 193.296 266.975C192.742 266.937 192.211 266.74 191.767 266.407L193.157 264.407L192.937 264.257L188.548 263.697L188.537 263.627L180.077 207.347L86.1999 191.025L101.307 274.567Z" fill="url(#paint15_linear_3169_6191)"/>
</mask>
<g mask="url(#mask3_3169_6191)">
<path d="M101.307 274.567C101.307 274.567 114.507 277.417 130.907 280.987C151.467 285.487 177.067 291.097 187.977 293.567C191.183 294.316 193.122 294.806 193.297 294.917L193.307 294.987L232.567 271.587L232.567 269.317L207.177 266.067L205.837 266.617C205.837 266.617 200.787 270.217 198.027 267.417C196.637 267.867 196.007 267.617 194.887 266.617C194.403 266.888 193.85 267.012 193.296 266.975C192.742 266.937 192.211 266.74 191.767 266.407L193.157 264.407L192.937 264.257L188.548 263.697L188.537 263.627L180.077 207.347L86.1999 191.025L101.307 274.567Z" fill="url(#paint16_linear_3169_6191)"/>
<path opacity="0.6" d="M101.33 198.096L205.356 216.264L232.383 160.346C180.272 156.762 75.3199 149.68 72.3954 150.024C69.4709 150.368 50.1033 239.622 40.7851 284.207L107.237 290.057L93.221 206.145C92.4258 201.384 96.5746 197.266 101.33 198.096Z" fill="white"/>
<path opacity="0.5" d="M40.1428 277.044C179.892 271.799 173.039 208.933 228.259 208.933L265.037 247.428L252.08 278.586C158.26 357.585 40.1428 277.044 40.1428 277.044Z" fill="url(#paint17_linear_3169_6191)"/>
<g style="mix-blend-mode:multiply" opacity="0.5">
<path d="M193.551 294.907L232.616 271.389V269.467L193.551 292.466L193.551 294.907Z" fill="#0C0241"/>
</g>
<path d="M136.043 258.408L140.436 258.924L141.005 263.524L136.612 263.009L136.043 258.408Z" fill="#EAE1FF"/>
<path d="M131.922 225.079L136.316 225.595L136.94 230.644L132.546 230.128L131.922 225.079Z" fill="#EAE1FF"/>
<path fill-rule="evenodd" clip-rule="evenodd" d="M137.955 255.923C139.507 256.105 140.919 255.666 141.881 254.702C142.843 253.738 143.276 252.329 143.085 250.783L146.985 251.241C147.303 253.816 146.581 256.166 144.978 257.772C143.375 259.379 141.021 260.111 138.436 259.808C135.85 259.504 133.243 258.19 131.19 256.155C129.136 254.119 127.803 251.529 127.485 248.953L131.385 249.411C131.576 250.956 132.376 252.51 133.608 253.732C134.84 254.953 136.404 255.741 137.955 255.923Z" fill="#EAE1FF"/>
<path fill-rule="evenodd" clip-rule="evenodd" d="M136.373 243.962C139.422 244.319 141.59 242.147 141.215 239.11C140.839 236.072 138.062 233.32 135.013 232.962C131.963 232.605 129.796 234.777 130.171 237.814C130.547 240.852 133.323 243.604 136.373 243.962ZM136.891 248.152C142.264 248.782 146.083 244.955 145.422 239.603C144.76 234.252 139.868 229.403 134.495 228.772C129.122 228.142 125.302 231.969 125.964 237.321C126.626 242.672 131.518 247.521 136.891 248.152Z" fill="#EAE1FF"/>
</g>
<mask id="mask4_3169_6191" style="mask-type:alpha" maskUnits="userSpaceOnUse" x="130" y="123" width="209" height="259">
<path d="M298.697 132.328L308.437 138.578L310.437 141.578L310.4 141.629C312.849 143.786 315.199 144.747 317.188 145.561C320.791 147.034 323.209 148.023 322.887 154.758L322.797 154.848C319.397 151.458 314.407 148.958 307.297 147.978C305.777 147.728 304.297 147.518 302.937 147.338C305.17 146.472 307.181 145.14 308.843 143.441C307.189 145.109 305.196 146.416 302.987 147.268C293.937 146.105 287.597 146.391 281.702 146.656C278.42 146.804 275.275 146.946 271.877 146.828V146.708C271.877 146.708 281.697 139.258 287.697 131.348C289.271 129.175 289.928 126.471 289.527 123.818V123.678C289.527 123.678 298.217 127.398 298.697 132.328Z" fill="url(#paint18_linear_3169_6191)"/>
<path d="M220.957 371.468C223.067 369.258 225.522 367.407 228.227 365.988C244.617 357.598 261.437 373.668 266.987 381.888C290.457 375.258 306.817 361.108 317.907 342.778C333.587 316.918 338.727 282.778 338.587 249.778C338.418 229.941 336.622 210.151 333.217 190.608C332.167 184.608 331.027 178.888 329.837 173.608C329.617 172.608 329.377 171.608 329.137 170.608C329.284 175.415 328.632 180.214 327.207 184.808C325.773 189.242 324.824 193.819 324.377 198.458C323.28 212.765 318.856 221.59 313.892 231.492C311.573 236.116 309.137 240.976 306.867 246.738C306.511 247.673 306.263 248.646 306.127 249.638C305.357 254.838 303.937 256.408 298.937 257.008C296.92 257.231 294.917 257.565 292.937 258.008C289.387 258.838 285.977 259.448 282.697 259.898V259.988L278.217 283.748C276.772 292.359 272.352 300.19 265.727 305.878C243.917 323.859 219.678 338.672 193.727 349.878H193.657C196.767 358.748 197.197 366.168 195.767 372.878C205.837 388.688 216.277 377.098 220.957 371.468Z" fill="url(#paint19_linear_3169_6191)"/>
<path d="M257.367 142.097C260.793 139.406 263.652 137.16 261.417 132.838L259.537 134.598C258.799 135.275 257.834 135.651 256.832 135.651C255.831 135.651 254.865 135.275 254.127 134.598L254.027 134.718L249.697 138.158H245.837L244.367 139.608L238.367 139.308L229.807 146.828L229.98 146.726L229.981 146.726C230.778 146.256 231.611 145.766 232.487 145.328C234.583 144.349 236.918 144.002 239.207 144.328H239.557L249.287 145.488C250.417 145.62 251.49 146.052 252.397 146.738L252.497 146.618C253.909 144.814 255.705 143.403 257.367 142.097Z" fill="url(#paint20_linear_3169_6191)"/>
<path d="M130.907 281.018L131.967 281.788C135.817 284.678 147.927 294.618 153.787 309.188C156.075 314.751 157.162 320.735 156.977 326.748L164.847 318.698C165.925 317.483 167.055 316.194 168.236 314.847C173.716 308.595 180.303 301.079 187.987 293.848V293.638C177.067 291.098 151.467 285.488 130.907 281.018Z" fill="url(#paint21_linear_3169_6191)"/>
</mask>
<g mask="url(#mask4_3169_6191)">
<path d="M298.697 132.328L308.437 138.578L310.437 141.578L310.4 141.629C312.849 143.786 315.199 144.747 317.188 145.561C320.791 147.034 323.209 148.023 322.887 154.758L322.797 154.848C319.397 151.458 314.407 148.958 307.297 147.978C305.777 147.728 304.297 147.518 302.937 147.338C305.17 146.472 307.181 145.14 308.843 143.441C307.189 145.109 305.196 146.416 302.987 147.268C293.937 146.105 287.597 146.391 281.702 146.656C278.42 146.804 275.275 146.946 271.877 146.828V146.708C271.877 146.708 281.697 139.258 287.697 131.348C289.271 129.175 289.928 126.471 289.527 123.818V123.678C289.527 123.678 298.217 127.398 298.697 132.328Z" fill="url(#paint22_linear_3169_6191)"/>
<path d="M220.957 371.468C223.067 369.258 225.522 367.407 228.227 365.988C244.617 357.598 261.437 373.668 266.987 381.888C290.457 375.258 306.817 361.108 317.907 342.778C333.587 316.918 338.727 282.778 338.587 249.778C338.418 229.941 336.622 210.151 333.217 190.608C332.167 184.608 331.027 178.888 329.837 173.608C329.617 172.608 329.377 171.608 329.137 170.608C329.284 175.415 328.632 180.214 327.207 184.808C325.773 189.242 324.824 193.819 324.377 198.458C323.28 212.765 318.856 221.59 313.892 231.492C311.573 236.116 309.137 240.976 306.867 246.738C306.511 247.673 306.263 248.646 306.127 249.638C305.357 254.838 303.937 256.408 298.937 257.008C296.92 257.231 294.917 257.565 292.937 258.008C289.387 258.838 285.977 259.448 282.697 259.898V259.988L278.217 283.748C276.772 292.359 272.352 300.19 265.727 305.878C243.917 323.859 219.678 338.672 193.727 349.878H193.657C196.767 358.748 197.197 366.168 195.767 372.878C205.837 388.688 216.277 377.098 220.957 371.468Z" fill="url(#paint23_linear_3169_6191)"/>
<path d="M257.367 142.097C260.793 139.406 263.652 137.16 261.417 132.838L259.537 134.598C258.799 135.275 257.834 135.651 256.832 135.651C255.831 135.651 254.865 135.275 254.127 134.598L254.027 134.718L249.697 138.158H245.837L244.367 139.608L238.367 139.308L229.807 146.828L229.98 146.726L229.981 146.726C230.778 146.256 231.611 145.766 232.487 145.328C234.583 144.349 236.918 144.002 239.207 144.328H239.557L249.287 145.488C250.417 145.62 251.49 146.052 252.397 146.738L252.497 146.618C253.909 144.814 255.705 143.403 257.367 142.097Z" fill="url(#paint24_linear_3169_6191)"/>
<path d="M130.907 281.018L131.967 281.788C135.817 284.678 147.927 294.618 153.787 309.188C156.075 314.751 157.162 320.735 156.977 326.748L164.847 318.698C165.925 317.483 167.055 316.194 168.236 314.847C173.716 308.595 180.303 301.079 187.987 293.848V293.638C177.067 291.098 151.467 285.488 130.907 281.018Z" fill="url(#paint25_linear_3169_6191)"/>
<g style="mix-blend-mode:screen">
<path d="M262.93 378.583C338.792 357.058 341.091 251.729 332.105 182.973H333.777L356.974 230.203L333.568 366.671L269.409 388.823L262.93 378.583Z" fill="#33105B"/>
</g>
<g style="mix-blend-mode:screen" opacity="0.7">
<path d="M272.708 146.542C271.642 146.542 270.419 146.902 274.24 146.542C278.926 144.965 294.336 133.565 291.227 125.004C289.755 124.508 286.127 123.517 283.387 123.517C279.962 123.517 276.403 131.312 275.772 132.123C275.267 132.772 273.519 142.006 272.708 146.542Z" fill="#501582"/>
<path d="M235.375 144.651C235.561 144.651 238.085 141.797 239.324 140.37C237.078 139.806 232.475 138.678 232.023 138.678C231.459 138.678 229.733 144.021 229.435 145.049C229.136 146.078 235.143 144.651 235.375 144.651Z" fill="#501582"/>
</g>
<g style="mix-blend-mode:multiply" opacity="0.55">
<path d="M180.083 314.494C176.194 297.478 144.593 298.207 142.284 298.815C139.974 296.424 134.699 290.331 132.074 285.08C128.793 278.517 134.748 278.274 135.356 276.329C135.964 274.384 147.51 275.235 158.206 275.478C166.762 275.673 183.811 284.067 191.265 288.24C188.835 302.663 183.195 328.106 180.083 314.494Z" fill="url(#paint26_linear_3169_6191)"/>
<path d="M209.323 393.812C212.031 393.271 223.764 374.294 229.292 364.873C262.241 340.526 290.893 307.043 295.917 272.072C296.782 266.046 302.152 263.052 306.524 258.816C307.802 257.578 308.743 255.628 309.125 252.466C309.598 248.544 310.552 244.624 312.723 241.322C333.828 209.222 327.872 184.424 332.995 171.467C328.256 169.437 281.823 251.655 280.74 252.332C279.657 253.009 263.929 280.369 256.201 293.964C234.877 307.39 191.553 335.02 188.845 338.134C185.461 342.027 180.891 364.873 183.938 376.889C186.984 388.905 205.938 394.489 209.323 393.812Z" fill="url(#paint27_linear_3169_6191)"/>
<path d="M284.865 146.022C290.891 144.93 296.611 136.129 298.718 131.865C304.759 139.209 293.585 147.083 288.454 147.083L284.865 146.022Z" fill="url(#paint28_linear_3169_6191)"/>
<path d="M306.403 145.263C306.686 144.657 309.049 142.718 310.195 141.825L313.836 144.1C313.027 147.336 308.004 148.55 305.594 148.752L303.875 148.196C304.6 147.471 306.12 145.87 306.403 145.263Z" fill="url(#paint29_linear_3169_6191)"/>
<path d="M250.029 145.364C254.882 141.764 254.444 137.359 253.618 135.606V134.443C255.927 133.668 260.788 132.006 261.759 131.561C262.729 131.116 262.905 132.286 262.871 132.927L262.517 140.612L254.63 148.095L250.029 145.364Z" fill="url(#paint30_linear_3169_6191)"/>
</g>
</g>
<mask id="mask5_3169_6191" style="mask-type:alpha" maskUnits="userSpaceOnUse" x="91" y="2" width="334" height="341">
<path d="M354.863 119.966C345.344 118.143 333.4 118.76 320.289 119.1V118.75C322.879 81.18 312.669 40.84 285.589 2L287.079 2.35L287.095 2.36526C287.825 2.53344 288.54 2.71671 289.26 2.90142L289.489 2.96001C300.673 5.94611 311.556 9.96332 321.999 14.96C336.54 21.9087 350.054 30.8294 362.159 41.47C362.24 41.5196 362.311 41.5841 362.369 41.66C384.743 61.1687 401.97 85.8861 412.529 113.63C423.081 141.386 426.636 171.314 422.879 200.77V201.34C419.339 238.41 397.069 284.72 362.369 314.34C361.892 314.8 361.391 315.234 360.869 315.64C358.632 317.591 356.268 319.452 353.855 321.351L353.489 321.64C353.155 321.91 352.814 322.165 352.478 322.416L352.473 322.419L352.461 322.429C352.268 322.573 352.076 322.716 351.889 322.86L350.229 324.05C350.068 324.149 349.918 324.263 349.779 324.39C348.059 325.68 346.309 326.88 344.489 328.08L344.34 328.182C343.784 328.566 343.11 329.032 342.689 329.27C342.459 329.4 342.244 329.545 342.029 329.69C341.814 329.835 341.599 329.98 341.369 330.11L339.769 331.17C337.573 332.536 335.363 333.825 333.109 335.139C332.806 335.315 332.503 335.492 332.199 335.67C331.843 335.845 331.495 336.037 331.145 336.232C330.835 336.403 330.522 336.576 330.199 336.74C328.366 337.757 326.449 338.724 324.541 339.686L324.019 339.95C323.573 340.149 323.142 340.371 322.715 340.591L322.696 340.601L322.48 340.712C322.402 340.752 322.324 340.791 322.246 340.831C322.207 340.851 322.168 340.87 322.129 340.89C321.794 341.049 321.461 341.208 321.127 341.366L321.102 341.378C320.037 341.885 318.976 342.39 317.909 342.89C333.549 317.06 338.729 282.95 338.589 249.89L338.608 249.842C338.434 230.031 339.339 228.827 335.939 209.31C344.494 202.104 359.87 159.634 361.977 152.597C367.677 133.561 366.772 138.23 374.793 123.465C372.201 122.243 360.709 119.966 356.899 119.966H354.863Z" fill="url(#paint31_linear_3169_6191)"/>
<path d="M132.359 320.99C120.391 311.709 109.64 300.957 100.359 288.99C97.1385 284.83 94.0919 280.517 91.2185 276.05L93.1585 276.52L93.0185 277.1C93.0185 277.1 93.0199 277.101 93.0226 277.103L93.1586 276.54C105.903 279.597 118.921 281.376 132.019 281.85C135.867 284.739 147.969 294.672 153.811 309.232L153.819 309.23C156.106 314.794 157.193 320.777 157.009 326.79L156.599 327.21C154.591 329.266 153.467 332.026 153.469 334.9V335.05H153.259C145.972 330.857 138.989 326.159 132.359 320.99Z" fill="url(#paint32_linear_3169_6191)"/>
</mask>
<g mask="url(#mask5_3169_6191)">
<path d="M354.863 119.966C345.344 118.143 333.4 118.76 320.289 119.1V118.75C322.879 81.18 312.669 40.84 285.589 2L287.079 2.35L287.095 2.36526C287.825 2.53344 288.54 2.71671 289.26 2.90142L289.489 2.96001C300.673 5.94611 311.556 9.96332 321.999 14.96C336.54 21.9087 350.054 30.8294 362.159 41.47C362.24 41.5196 362.311 41.5841 362.369 41.66C384.743 61.1687 401.97 85.8861 412.529 113.63C423.081 141.386 426.636 171.314 422.879 200.77V201.34C419.339 238.41 397.069 284.72 362.369 314.34C361.892 314.8 361.391 315.234 360.869 315.64C358.632 317.591 356.268 319.452 353.855 321.351L353.489 321.64C353.155 321.91 352.814 322.165 352.478 322.416L352.473 322.419L352.461 322.429C352.268 322.573 352.076 322.716 351.889 322.86L350.229 324.05C350.068 324.149 349.918 324.263 349.779 324.39C348.059 325.68 346.309 326.88 344.489 328.08L344.34 328.182C343.784 328.566 343.11 329.032 342.689 329.27C342.459 329.4 342.244 329.545 342.029 329.69C341.814 329.835 341.599 329.98 341.369 330.11L339.769 331.17C337.573 332.536 335.363 333.825 333.109 335.139C332.806 335.315 332.503 335.492 332.199 335.67C331.843 335.845 331.495 336.037 331.145 336.232C330.835 336.403 330.522 336.576 330.199 336.74C328.366 337.757 326.449 338.724 324.541 339.686L324.019 339.95C323.573 340.149 323.142 340.371 322.715 340.591L322.696 340.601L322.48 340.712C322.402 340.752 322.324 340.791 322.246 340.831C322.207 340.851 322.168 340.87 322.129 340.89C321.794 341.049 321.461 341.208 321.127 341.366L321.102 341.378C320.037 341.885 318.976 342.39 317.909 342.89C333.549 317.06 338.729 282.95 338.589 249.89L338.608 249.842C338.434 230.031 339.339 228.827 335.939 209.31C344.494 202.104 359.87 159.634 361.977 152.597C367.677 133.561 366.772 138.23 374.793 123.465C372.201 122.243 360.709 119.966 356.899 119.966H354.863Z" fill="url(#paint33_linear_3169_6191)"/>
<path d="M132.359 320.99C120.391 311.709 109.64 300.957 100.359 288.99C97.1385 284.83 94.0919 280.517 91.2185 276.05L93.1585 276.52L93.0185 277.1C93.0185 277.1 93.0199 277.101 93.0226 277.103L93.1586 276.54C105.903 279.597 118.921 281.376 132.019 281.85C135.867 284.739 147.969 294.672 153.811 309.232L153.819 309.23C156.106 314.794 157.193 320.777 157.009 326.79L156.599 327.21C154.591 329.266 153.467 332.026 153.469 334.9V335.05H153.259C145.972 330.857 138.989 326.159 132.359 320.99Z" fill="url(#paint34_linear_3169_6191)"/>
<g style="mix-blend-mode:multiply">
<path d="M338.195 250.589C380.748 143.924 357.297 68.8425 287.51 2.83889C288.302 -0.539064 289.886 -7.79554 289.886 -9.79782C289.886 -12.3007 319.92 -13.7309 325.641 -12.6582C331.362 -11.5856 419.677 46.3375 435.051 56.7065C447.351 65.0016 466.873 167.905 475.097 218.319C433.859 273.859 348.747 385.08 338.195 385.652C325.006 386.368 276.656 368.133 275.584 364.915C274.726 362.34 316.967 287.625 338.195 250.589Z" fill="url(#paint35_linear_3169_6191)"/>
<path d="M153.558 308.802C132.911 304.321 105.142 286.061 93.8382 277.492C90.9705 280.326 85.0552 286.435 84.3349 288.195C83.4346 290.396 106.542 309.903 108.743 312.303C110.944 314.704 127.75 327.108 136.453 340.013C145.156 352.917 147.556 342.914 158.26 342.113C168.964 341.313 165.162 336.111 165.162 333.411C165.162 331.25 157.426 316.105 153.558 308.802Z" fill="url(#paint36_linear_3169_6191)"/>
</g>
<g style="mix-blend-mode:multiply" opacity="0.45">
<path d="M309.031 356.192C350.509 333.118 350.578 242.767 341.307 198.931C327.916 200.647 313.7 286.146 313.151 288.893C312.464 292.326 257.182 385.035 309.031 356.192Z" fill="#9B7EFE"/>
</g>
<path opacity="0.4" d="M92.6231 277.893C300.667 503.82 584.514 162.154 290.45 -0.318197C299.039 -5.2048 318.792 -14.3561 329.099 -11.8684C341.981 -8.7587 418.39 64.9846 420.611 72.0924C422.388 77.7786 436.752 148.205 443.712 182.707L429.94 314.201L300.667 376.394L211.376 379.948L106.092 329.305L92.6231 277.893Z" fill="url(#paint37_linear_3169_6191)"/>
</g>
<mask id="mask6_3169_6191" style="mask-type:alpha" maskUnits="userSpaceOnUse" x="1" y="143" width="329" height="340">
<path d="M211.315 242.787V242.517C212.675 240.213 213.819 237.79 214.735 235.277C206.122 240.55 196.478 243.915 186.455 245.147H186.355L182.665 220.617L183.125 220.547C184.205 219.924 185.45 219.056 186.818 218.103L186.819 218.102C190.982 215.199 196.276 211.509 201.485 211.547V211.127C203.975 196.757 210.155 187.447 213.485 183.247C214.898 181.557 215.713 179.448 215.805 177.247C216.005 169.097 217.595 154.627 230.335 146.597C231.15 146.088 232.002 145.635 232.899 145.158L232.9 145.158L232.901 145.157L233.015 145.097C235.11 144.118 237.445 143.77 239.735 144.097H240.085L249.815 145.257C250.944 145.389 252.018 145.821 252.925 146.507C253.177 146.694 253.415 146.902 253.635 147.127L255.695 149.207C256.204 149.718 256.809 150.125 257.476 150.402C258.143 150.679 258.858 150.822 259.58 150.822C260.302 150.822 261.017 150.679 261.683 150.402C262.35 150.125 262.956 149.718 263.465 149.207L264.755 147.917C265.309 147.373 265.976 146.957 266.709 146.7C267.442 146.442 268.222 146.349 268.995 146.427C270.148 146.527 271.268 146.597 272.355 146.637C275.752 146.755 278.894 146.613 282.174 146.465C288.065 146.2 294.401 145.914 303.465 147.077C304.855 147.257 306.305 147.467 307.825 147.717C314.935 148.717 319.925 151.197 323.325 154.587C327.635 158.857 329.385 164.587 329.635 170.347C329.782 175.154 329.129 179.953 327.705 184.547C326.271 188.981 325.322 193.558 324.875 198.197C323.777 212.511 319.353 221.333 314.39 231.232C312.071 235.855 309.635 240.714 307.365 246.477C307.008 247.412 306.76 248.385 306.625 249.377C305.855 254.577 304.405 256.147 299.435 256.747C297.418 256.97 295.415 257.303 293.435 257.747C289.885 258.577 286.435 259.187 283.195 259.637C273.381 260.991 264.663 260.92 256.615 260.854C251.475 260.811 246.609 260.771 241.905 261.107C240.134 261.288 238.388 261.657 236.695 262.207C230.523 263.896 224.051 264.18 217.755 263.037C216.347 262.78 214.896 262.922 213.565 263.447L206.375 266.397C206.375 266.397 201.375 269.997 198.565 267.197C197.175 267.647 196.565 267.437 195.425 266.397C194.94 266.667 194.387 266.791 193.834 266.754C193.28 266.717 192.749 266.52 192.305 266.187L193.695 264.187L197.085 259.287L207.145 249.067L198.145 254.127C194.065 261.347 190.695 258.957 190.695 258.957L194.065 250.647L203.065 244.087C204.201 243.254 205.566 242.79 206.975 242.757C208.097 242.821 209.146 242.808 210.153 242.796C210.546 242.791 210.933 242.787 211.315 242.787Z" fill="url(#paint38_linear_3169_6191)"/>
<path d="M194.315 349.717C197.465 358.577 197.855 365.997 196.425 372.717C194.194 383.235 187.528 391.994 180.119 401.73C171.587 412.942 162.07 425.449 157.205 443.427C156.975 448.987 155.715 452.227 153.205 454.927C151.941 456.184 150.938 457.68 150.255 459.327L143.475 477.627C143.375 477.902 143.255 478.169 143.115 478.427L142.815 478.277C139.272 476.877 136.455 473.69 133.544 470.398C130.465 466.915 127.281 463.314 123.025 461.587C122.783 461.491 122.525 461.443 122.265 461.447C119.815 461.447 115.455 460.787 113.405 458.327C112.888 457.668 112.134 457.237 111.305 457.127C109.271 457.048 107.343 456.197 105.915 454.747C105.665 454.414 105.352 454.135 104.993 453.926C104.634 453.716 104.237 453.581 103.825 453.527C101.925 453.387 99.3747 452.867 97.9847 451.527C97.5222 451.036 96.9287 450.689 96.2747 450.527C93.5124 449.932 91.0399 448.403 89.2747 446.197L89.3947 445.557C105.845 448.557 111.205 448.347 126.615 440.737C129.271 439.426 131.392 437.235 132.615 434.537C139.866 418.224 142.764 400.332 145.651 382.513C147.594 370.523 149.531 358.566 152.785 347.147C153.611 344.289 154.039 341.331 154.055 338.357V334.687C154.053 331.813 155.177 329.053 157.185 326.997L165.465 318.527C166.668 317.179 167.935 315.736 169.266 314.22L169.279 314.206L169.283 314.201L169.288 314.196C174.68 308.055 181.123 300.718 188.605 293.677V293.467C191.815 294.217 193.755 294.707 193.925 294.817L233.185 271.417V269.147L207.795 265.907L213.645 263.507C214.976 262.982 216.427 262.84 217.835 263.097C224.131 264.24 230.603 263.956 236.775 262.267C238.468 261.717 240.214 261.348 241.985 261.167C246.689 260.831 251.555 260.871 256.695 260.914C264.743 260.98 273.461 261.051 283.275 259.697V259.847L278.875 283.587C277.429 292.197 273.009 300.029 266.385 305.717C244.575 323.698 220.336 338.511 194.385 349.717H194.315Z" fill="url(#paint39_linear_3169_6191)"/>
<path d="M100.935 288.787C110.216 300.754 120.967 311.505 132.935 320.787C129.834 339.099 123.123 346.095 114.135 355.466C105.733 364.226 95.3407 375.062 84.0447 399.157C83.3727 401.847 82.0702 404.339 80.2447 406.427C78.4747 408.367 76.7847 410.567 76.4647 413.177C75.4647 421.017 74.5847 425.687 72.7447 428.907C70.5047 432.827 65.2347 432.907 60.9947 431.357C58.8947 430.577 56.8147 429.607 54.7147 428.587C49.2311 425.954 43.2212 425.11 37.2195 424.266L37.1978 424.263C36.6399 424.185 36.0821 424.106 35.5247 424.027C28.9265 423.082 22.5361 421.026 16.6247 417.947C15.2375 417.196 13.7487 416.65 12.2047 416.327C7.20475 415.327 1.28475 413.547 1.58475 407.327L16.1347 406.377C31.8047 403.667 36.5547 401.887 49.7347 396.137C55.0376 393.878 59.3823 389.834 62.0147 384.707C69.2328 370.375 72.9886 358.916 77.1021 346.366C82.0498 331.271 87.5149 314.597 100.145 289.447L100.935 288.787Z" fill="url(#paint40_linear_3169_6191)"/>
<path d="M143.075 478.417L142.775 478.267C139.248 476.873 136.452 473.709 133.562 470.439C130.479 466.949 127.29 463.34 122.995 461.637C122.753 461.541 122.495 461.493 122.235 461.497C119.785 461.487 115.375 460.837 113.375 458.377C112.858 457.718 112.104 457.288 111.275 457.177C109.241 457.098 107.313 456.247 105.885 454.797C105.635 454.464 105.322 454.185 104.963 453.976C104.604 453.766 104.207 453.631 103.795 453.577C101.895 453.417 99.3448 452.897 97.9548 451.577C97.4923 451.086 96.8988 450.739 96.2448 450.577C93.4825 449.982 91.01 448.453 89.2448 446.247L89.3648 445.607L89.0448 445.547C84.9791 448.376 88.5369 451.279 91.8741 454.001C92.6411 454.627 93.3964 455.243 94.0448 455.847C94.0448 455.847 97.5748 463.647 109.735 469.227C112.261 470.384 114.446 472.175 116.075 474.427C117.491 476.39 119.063 478.236 120.775 479.947C121.55 480.683 122.464 481.26 123.462 481.642C124.461 482.025 125.526 482.207 126.595 482.177H136.875C138.153 482.176 139.407 481.825 140.5 481.162C141.593 480.499 142.483 479.55 143.075 478.417Z" fill="url(#paint41_linear_3169_6191)"/>
</mask>
<g mask="url(#mask6_3169_6191)">
<path d="M211.315 242.787V242.517C212.675 240.213 213.819 237.79 214.735 235.277C206.122 240.55 196.478 243.915 186.455 245.147H186.355L182.665 220.617L183.125 220.547C184.205 219.924 185.45 219.056 186.818 218.103L186.819 218.102C190.982 215.199 196.276 211.509 201.485 211.547V211.127C203.975 196.757 210.155 187.447 213.485 183.247C214.898 181.557 215.713 179.448 215.805 177.247C216.005 169.097 217.595 154.627 230.335 146.597C231.15 146.088 232.002 145.635 232.899 145.158L232.9 145.158L232.901 145.157L233.015 145.097C235.11 144.118 237.445 143.77 239.735 144.097H240.085L249.815 145.257C250.944 145.389 252.018 145.821 252.925 146.507C253.177 146.694 253.415 146.902 253.635 147.127L255.695 149.207C256.204 149.718 256.809 150.125 257.476 150.402C258.143 150.679 258.858 150.822 259.58 150.822C260.302 150.822 261.017 150.679 261.683 150.402C262.35 150.125 262.956 149.718 263.465 149.207L264.755 147.917C265.309 147.373 265.976 146.957 266.709 146.7C267.442 146.442 268.222 146.349 268.995 146.427C270.148 146.527 271.268 146.597 272.355 146.637C275.752 146.755 278.894 146.613 282.174 146.465C288.065 146.2 294.401 145.914 303.465 147.077C304.855 147.257 306.305 147.467 307.825 147.717C314.935 148.717 319.925 151.197 323.325 154.587C327.635 158.857 329.385 164.587 329.635 170.347C329.782 175.154 329.129 179.953 327.705 184.547C326.271 188.981 325.322 193.558 324.875 198.197C323.777 212.511 319.353 221.333 314.39 231.232C312.071 235.855 309.635 240.714 307.365 246.477C307.008 247.412 306.76 248.385 306.625 249.377C305.855 254.577 304.405 256.147 299.435 256.747C297.418 256.97 295.415 257.303 293.435 257.747C289.885 258.577 286.435 259.187 283.195 259.637C273.381 260.991 264.663 260.92 256.615 260.854C251.475 260.811 246.609 260.771 241.905 261.107C240.134 261.288 238.388 261.657 236.695 262.207C230.523 263.896 224.051 264.18 217.755 263.037C216.347 262.78 214.896 262.922 213.565 263.447L206.375 266.397C206.375 266.397 201.375 269.997 198.565 267.197C197.175 267.647 196.565 267.437 195.425 266.397C194.94 266.667 194.387 266.791 193.834 266.754C193.28 266.717 192.749 266.52 192.305 266.187L193.695 264.187L197.085 259.287L207.145 249.067L198.145 254.127C194.065 261.347 190.695 258.957 190.695 258.957L194.065 250.647L203.065 244.087C204.201 243.254 205.566 242.79 206.975 242.757C208.097 242.821 209.146 242.808 210.153 242.796C210.546 242.791 210.933 242.787 211.315 242.787Z" fill="url(#paint42_linear_3169_6191)"/>
<path d="M194.315 349.717C197.465 358.577 197.855 365.997 196.425 372.717C194.194 383.235 187.528 391.994 180.119 401.73C171.587 412.942 162.07 425.449 157.205 443.427C156.975 448.987 155.715 452.227 153.205 454.927C151.941 456.184 150.938 457.68 150.255 459.327L143.475 477.627C143.375 477.902 143.255 478.169 143.115 478.427L142.815 478.277C139.272 476.877 136.455 473.69 133.544 470.398C130.465 466.915 127.281 463.314 123.025 461.587C122.783 461.491 122.525 461.443 122.265 461.447C119.815 461.447 115.455 460.787 113.405 458.327C112.888 457.668 112.134 457.237 111.305 457.127C109.271 457.048 107.343 456.197 105.915 454.747C105.665 454.414 105.352 454.135 104.993 453.926C104.634 453.716 104.237 453.581 103.825 453.527C101.925 453.387 99.3747 452.867 97.9847 451.527C97.5222 451.036 96.9287 450.689 96.2747 450.527C93.5124 449.932 91.0399 448.403 89.2747 446.197L89.3947 445.557C105.845 448.557 111.205 448.347 126.615 440.737C129.271 439.426 131.392 437.235 132.615 434.537C139.866 418.224 142.764 400.332 145.651 382.513C147.594 370.523 149.531 358.566 152.785 347.147C153.611 344.289 154.039 341.331 154.055 338.357V334.687C154.053 331.813 155.177 329.053 157.185 326.997L165.465 318.527C166.668 317.179 167.935 315.736 169.266 314.22L169.279 314.206L169.283 314.201L169.288 314.196C174.68 308.055 181.123 300.718 188.605 293.677V293.467C191.815 294.217 193.755 294.707 193.925 294.817L233.185 271.417V269.147L207.795 265.907L213.645 263.507C214.976 262.982 216.427 262.84 217.835 263.097C224.131 264.24 230.603 263.956 236.775 262.267C238.468 261.717 240.214 261.348 241.985 261.167C246.689 260.831 251.555 260.871 256.695 260.914C264.743 260.98 273.461 261.051 283.275 259.697V259.847L278.875 283.587C277.429 292.197 273.009 300.029 266.385 305.717C244.575 323.698 220.336 338.511 194.385 349.717H194.315Z" fill="url(#paint43_linear_3169_6191)"/>
<path d="M100.935 288.787C110.216 300.754 120.967 311.505 132.935 320.787C129.834 339.099 123.123 346.095 114.135 355.466C105.733 364.226 95.3407 375.062 84.0447 399.157C83.3727 401.847 82.0702 404.339 80.2447 406.427C78.4747 408.367 76.7847 410.567 76.4647 413.177C75.4647 421.017 74.5847 425.687 72.7447 428.907C70.5047 432.827 65.2347 432.907 60.9947 431.357C58.8947 430.577 56.8147 429.607 54.7147 428.587C49.2311 425.954 43.2212 425.11 37.2195 424.266L37.1978 424.263C36.6399 424.185 36.0821 424.106 35.5247 424.027C28.9265 423.082 22.5361 421.026 16.6247 417.947C15.2375 417.196 13.7487 416.65 12.2047 416.327C7.20475 415.327 1.28475 413.547 1.58475 407.327L16.1347 406.377C31.8047 403.667 36.5547 401.887 49.7347 396.137C55.0376 393.878 59.3823 389.834 62.0147 384.707C69.2328 370.375 72.9886 358.916 77.1021 346.366C82.0498 331.271 87.5149 314.597 100.145 289.447L100.935 288.787Z" fill="url(#paint44_linear_3169_6191)"/>
<path d="M143.075 478.417L142.775 478.267C139.248 476.873 136.452 473.709 133.562 470.439C130.479 466.949 127.29 463.34 122.995 461.637C122.753 461.541 122.495 461.493 122.235 461.497C119.785 461.487 115.375 460.837 113.375 458.377C112.858 457.718 112.104 457.288 111.275 457.177C109.241 457.098 107.313 456.247 105.885 454.797C105.635 454.464 105.322 454.185 104.963 453.976C104.604 453.766 104.207 453.631 103.795 453.577C101.895 453.417 99.3448 452.897 97.9548 451.577C97.4923 451.086 96.8988 450.739 96.2448 450.577C93.4825 449.982 91.01 448.453 89.2448 446.247L89.3648 445.607L89.0448 445.547C84.9791 448.376 88.5369 451.279 91.8741 454.001C92.6411 454.627 93.3964 455.243 94.0448 455.847C94.0448 455.847 97.5748 463.647 109.735 469.227C112.261 470.384 114.446 472.175 116.075 474.427C117.491 476.39 119.063 478.236 120.775 479.947C121.55 480.683 122.464 481.26 123.462 481.642C124.461 482.025 125.526 482.207 126.595 482.177H136.875C138.153 482.176 139.407 481.825 140.5 481.162C141.593 480.499 142.483 479.55 143.075 478.417Z" fill="url(#paint45_linear_3169_6191)"/>
<g style="mix-blend-mode:screen" opacity="0.5">
<path d="M218.994 181.4C216.888 159.636 226.201 151.54 234.011 144.958C232.929 140.979 230.694 132.97 230.413 132.759C230.062 132.496 213.651 148.117 213.3 149.434C212.949 150.75 193.642 194.454 192.238 197.35C191.114 199.667 195.456 207.969 197.767 211.831L204.969 211.998C205.636 194.556 218.994 181.4 218.994 181.4Z" fill="#67118C"/>
<path d="M210.181 242.459H214.561C218.067 225.636 224.572 231.082 222.795 200.179C222.371 201.498 221.522 204.229 221.522 204.605C221.522 204.98 220.949 214.355 220.662 218.995L219.723 221.42L214.561 234.559L210.181 242.459Z" fill="#67118C"/>
<path d="M291.262 193.201C293.618 188.357 291.243 183.857 289.279 181.4L288.913 184.388L285.899 191.801L282.042 203.252L281.44 213.316L281.862 223.44L281.44 228.804L272.099 230.009L258.539 235.072L242.93 241.641C240.258 242.223 234.746 243.412 234.071 243.509C233.396 243.605 227.826 243.226 225.126 243.024H204.969L191.331 252.107L190.921 259.308L195.422 251.616L203.892 246.07C205.264 245.171 206.955 244.793 208.587 244.965C260.233 250.407 252.758 230.911 285.442 230.911C281.907 205.517 288.316 199.256 291.262 193.201Z" fill="#67118C"/>
<path d="M42.9498 402.111C19.4055 410.93 5.11972 407.625 1.22635 405.91C6.68002 403.644 17.4989 397.653 17.1452 391.817C16.7031 384.522 44.5573 339.425 44.7784 335.666C44.9552 332.66 74.5942 317.165 89.3915 309.793C80.2808 349.89 71.3037 371.959 65.0623 383.707C60.3843 392.512 52.2871 398.614 42.9498 402.111Z" fill="#67118C"/>
</g>
<g style="mix-blend-mode:screen" opacity="0.4">
<path d="M161.626 333.742C158.526 329.469 159.361 324.577 159.361 324.577C157.39 324.078 152.97 323.38 151.054 324.577C148.659 326.074 145.815 332.361 150.455 340.369C153.279 345.192 157.761 344.49 161.444 342.676C164.68 341.081 163.744 336.662 161.626 333.742Z" fill="#67118C"/>
</g>
<g style="mix-blend-mode:multiply" opacity="0.6">
<path d="M309.05 191.113C325.271 184.874 330.784 163.401 313.043 149.408L322.899 153.753L327.607 147.408L339.273 138.197L376.934 168.489L335.384 269.6L283.806 333.05C255.496 371.883 198.464 449.933 196.818 451.463C194.76 453.377 158.627 516.441 140.327 510.914C122.027 505.388 89.333 496.792 84.8595 492.903C81.2808 489.792 85.0749 460.1 87.4194 445.643L89.333 447.556C90.2632 448.061 92.3309 449.167 93.1602 449.55C93.9894 449.933 95.5788 450.985 96.2698 451.463L102.489 453.616L105.918 455.769L110.383 457.443L112.695 458.639L116.203 460.553L122.024 461.909L124.655 462.626L132.469 469.324C144.206 472.896 146.927 458.905 146.821 451.463C150.903 449.295 151.658 444.606 151.764 439.184C165.076 420.14 167.193 404.559 167.527 399.725C167.577 398.996 166.832 398.532 166.142 398.777C161.562 400.401 158.627 398.593 158.627 398.593C191.791 376.886 179.128 337.241 179.128 337.241C191.429 340.256 189.982 332.267 198.876 322.77C211.99 321.112 242.591 296.39 251.485 291.114C258.6 286.893 258.178 276.479 257.077 271.8C247.719 262.808 221.846 268.497 221.846 268.497L209.002 266.111L200.653 268.497C204.172 263.804 209.098 263.506 212.479 261.516C214.046 260.593 215.809 259.777 217.623 259.895C226.404 260.47 233.791 258.171 236.598 257.139C237.404 256.843 238.251 256.708 239.107 256.77C259.898 258.277 293.566 249.891 292.033 234.183C308.273 235.926 320.108 211.338 317.539 192.713C317.539 192.713 312.995 193.407 309.05 191.113Z" fill="#66118C"/>
<path d="M114.393 333.797C119.796 321.533 102.208 308.747 92.738 303.887V292.831L93.1602 280.634C98.901 282.707 110.845 287.139 112.695 288.287C115.007 289.722 136.55 310.768 137.507 312.442C138.463 314.116 134.637 331.574 134.637 333.797C134.637 335.575 133.521 363.03 132.963 376.535C110.871 398.845 65.873 443.529 62.6141 443.787C58.5404 444.108 61.8637 444.751 49.6426 446.359C37.4215 447.968 20.8051 440.892 8.2624 432.53C-4.28029 424.169 1.18703 428.457 -10.6052 416.879C-22.3975 405.301 -1.17142 403.157 -1.06422 407.981C-0.957013 412.805 8.69121 416.986 16.7314 416.236C24.7716 415.485 45.9977 426.098 59.1836 425.884C69.7323 425.712 71.9407 412.805 71.7263 406.373C72.4767 405.515 74.0419 403.671 74.2991 403.157C74.5564 402.642 76.2645 398.629 77.0864 396.687C84.5906 381.854 107.639 349.127 114.393 333.797Z" fill="#66118C"/>
<path d="M193.613 297.294L233.683 272.353L232.375 269.654L187.97 292.061L187.234 295.332L193.613 297.294Z" fill="#66118C"/>
</g>
<g style="mix-blend-mode:multiply" opacity="0.7">
<path d="M229.58 203.664C237.93 198.859 246.654 203.084 249.946 205.358C248.269 201.239 238.816 193.769 229.58 203.664Z" fill="#66118C"/>
</g>
<g style="mix-blend-mode:multiply" opacity="0.7">
<path d="M226.643 212.388C226.643 212.388 231.83 215.9 236.441 214.76C237.421 214.518 238.267 214.248 238.846 213.96L241.733 215.631C244.403 217.176 247.648 217.357 250.473 216.118L250.056 216.126C247.693 216.173 245.359 215.594 243.291 214.45C241.2 213.292 239.796 211.196 239.521 208.821L239.01 204.4L237.547 209.488C237.047 211.227 235.662 212.57 233.909 213.018C230.309 213.936 226.643 212.388 226.643 212.388Z" fill="#66118C"/>
</g>
<g style="mix-blend-mode:multiply" opacity="0.7">
<path d="M224.412 225.121C224.412 225.121 229.277 229.067 233.969 228.33C234.966 228.173 235.833 227.977 236.434 227.741L239.166 229.655C241.692 231.425 244.91 231.885 247.831 230.895L247.415 230.867C245.057 230.709 242.782 229.931 240.82 228.612C238.837 227.278 237.619 225.069 237.551 222.679L237.423 218.23L235.526 223.173C234.878 224.862 233.382 226.081 231.597 226.375C227.931 226.979 224.412 225.121 224.412 225.121Z" fill="#66118C"/>
</g>
<g style="mix-blend-mode:multiply" opacity="0.7">
<path d="M234.665 190.576C229.516 191.972 224.634 193.489 222.246 187.603V196.376V198.533C227.834 199.128 230.264 198.433 232.788 197.351C237.256 195.435 242.153 196.389 246.526 198.514C251.744 201.05 257.412 202.481 264.414 202.079C269.645 201.778 275.471 206.338 276.585 211.458C278.239 219.061 279.984 226.4 269.722 230.928L276.527 229.202H281.449L282.019 224.931L281.287 213.135L282.71 200.101C283.727 197.531 285.826 192.292 286.086 191.902C286.412 191.413 288.697 187.102 288.697 186.329V181.968C276.868 196.392 258.96 196.165 244.948 191.437C241.6 190.308 238.074 189.652 234.665 190.576Z" fill="#66118C"/>
<path d="M183.963 231.202C183.963 231.202 198.703 236.778 211.959 223.603C211.998 223.565 212.036 223.52 212.068 223.475C215.532 218.502 208.315 213.976 208.315 213.976C208.315 213.976 210.557 213.72 212.657 214.211C214.326 214.602 217.253 214.309 217.822 212.692C221.035 203.555 220.461 191.547 220.247 186.423C220.246 186.397 220.246 186.375 220.245 186.349C220.234 185.63 220.172 174.508 227.058 166.954L225.591 171.516L222.106 184.267L221.953 196.576C222.05 198.271 222.161 201.96 221.823 203.165C221.485 204.37 220.631 214.184 220.246 218.94L218.095 223.888L214.366 236.795C206.909 239.878 191.765 246.087 190.847 246.26C189.929 246.432 187.453 247.574 186.329 248.124L183.963 231.202Z" fill="#66118C"/>
</g>
</g>
<path d="M247.975 179.479L251.102 179.56L250.141 182.694L247.014 182.612L247.975 179.479Z" fill="white"/>
<path d="M254.937 156.778L258.064 156.86L257.009 160.299L253.882 160.217L254.937 156.778Z" fill="white"/>
<path fill-rule="evenodd" clip-rule="evenodd" d="M250.152 177.648C251.256 177.677 252.444 177.287 253.452 176.563C254.461 175.839 255.21 174.841 255.532 173.789L258.308 173.861C257.77 175.615 256.523 177.279 254.841 178.485C253.16 179.691 251.181 180.342 249.341 180.294C247.501 180.245 245.95 179.502 245.029 178.228C244.108 176.954 243.893 175.252 244.431 173.498L247.206 173.571C246.884 174.623 247.013 175.644 247.565 176.409C248.118 177.173 249.048 177.619 250.152 177.648Z" fill="white"/>
<path fill-rule="evenodd" clip-rule="evenodd" d="M252.574 169.507C254.744 169.564 257.017 167.933 257.652 165.864C258.286 163.796 257.041 162.072 254.871 162.016C252.701 161.959 250.428 163.59 249.793 165.658C249.159 167.727 250.404 169.45 252.574 169.507ZM251.698 172.361C255.522 172.461 259.528 169.588 260.646 165.943C261.764 162.298 259.57 159.262 255.746 159.162C251.923 159.062 247.917 161.935 246.799 165.58C245.681 169.225 247.875 172.261 251.698 172.361Z" fill="white"/>
<path d="M189.515 269.386L217.078 273.812L192.384 287.829" stroke="#6E33E5" stroke-width="1.5"/>
<path d="M190.253 271.89L209.414 274.966L192.248 284.71L190.253 271.89Z" fill="#6E33E5"/>
<path d="M261.371 132.71C264.942 139.274 256.908 141.112 252.549 146.679" stroke="#6E33E5" stroke-width="1.5"/>
<path d="M229.841 146.81L235.851 141.187C236.519 140.562 237.381 140.185 238.293 140.118L244.424 139.671M254.085 134.778L249.759 138.222H245.901L239.468 144.533" stroke="#6E33E5" stroke-width="1.5"/>
<path d="M275.974 107.473C278.474 107.973 282.474 105.973 282.474 105.973C282.474 105.973 283.474 106.973 283.474 107.973C286.974 105.473 285.474 100.473 285.474 100.473C287.474 100.973 287.974 102.473 287.974 102.473C289.974 96.473 286.974 89.973 286.974 89.973C291.474 90.973 292.474 87.473 292.474 87.473C286.974 85.973 284.974 79.473 284.974 79.473C284.974 79.473 287.474 78.973 290.474 80.973C289.274 75.373 284.474 72.8064 282.474 72.473C283.674 69.273 285.974 68.473 285.974 68.473C281.174 66.073 277.64 67.8064 276.474 68.973C276.474 68.973 275.974 62.973 270.474 60.973C270.474 60.973 271.974 64.473 270.474 66.473C264.911 57.979 258.36 64.723 252.676 58.6533C252.676 58.6533 251.184 62.3647 252.676 64.0387C246.562 62.5589 237.754 60.7964 235.776 68.2268C238.617 67.0996 242.134 68.973 242.134 68.973C241.097 72.285 236.723 74.4043 232.845 73.6828C232.845 73.6828 231.132 75.8021 232.079 78.6879C223.556 82.9265 228.622 88.9236 225.961 94.7403C225.961 94.7403 229.118 94.8305 230.831 91.3585C230.831 91.3585 232.319 98.5279 228.937 101.955C228.937 101.955 231.442 103.607 236.698 102.657" stroke="#6E33E5" stroke-width="1.5"/>
<path d="M240.715 115.179C240.144 115.456 239.501 115.564 238.823 115.484C238.142 115.405 237.432 115.137 236.745 114.678C236.059 114.219 235.419 113.585 234.878 112.812C234.338 112.039 233.914 111.153 233.64 110.216C233.365 109.279 233.249 108.322 233.294 107.413C233.339 106.503 233.544 105.673 233.882 104.974C234.219 104.277 234.678 103.733 235.213 103.361C235.746 102.99 236.358 102.788 237.012 102.767" stroke="#6E33E5" stroke-width="1.5"/>
<path d="M240.481 119.022L240.275 109.716C240.265 109.275 240.109 108.848 239.831 108.505L238.964 107.429C237.678 105.836 236.783 103.942 236.596 101.903C236.042 95.8676 237.003 91.5 237.003 91.5C237.003 91.5 239.503 95 246.503 95C245.503 92.5 246.503 88.5 246.503 88.5C254.103 91.3 254.669 97 254.003 99.5C259.503 96.5 258.503 91 258.503 91C261.003 96.5 267.503 97 267.503 97C266.503 94 267.503 90.5 267.503 90.5C270.003 95.5 273.003 96.5 273.003 96.5C280.003 92.5 281.003 103.5 276.003 106.5L276.569 110.842C277.155 115.333 275.532 119.83 272.213 122.912L259.596 134.628C257.915 136.189 255.269 136.02 253.801 134.258L249.003 128.5L247.556 127.776C247.217 127.607 247.003 127.261 247.003 126.882V124.5L245.414 124.182C244.9 124.08 244.553 123.598 244.618 123.078L245.003 120H241.481C240.937 120 240.493 119.566 240.481 119.022Z" stroke="#C24353" stroke-width="1.5"/>
<path fill-rule="evenodd" clip-rule="evenodd" d="M247.003 125.25C247.003 125.25 247.003 125.25 247.003 124.5C247.003 123.75 247.002 123.75 247.002 123.75L247 123.75L246.999 123.75L247.008 123.75C249.672 123.364 251.87 122.143 252.723 121.613C252.933 121.483 253.213 121.545 253.339 121.757C253.435 121.917 253.414 122.12 253.277 122.247C252.609 122.87 250.461 124.637 247.022 125.25L247.01 125.25L247.006 125.25L247.003 125.25Z" fill="#C24353"/>
<path d="M193.361 295.052C192.161 294.252 101.356 274.657 101.356 274.657L85.9656 190.783L180.129 207.478L188.599 263.761M193.361 295.052L232.615 271.646V269.383M193.361 295.052L188.599 263.761M188.599 263.761L192.989 264.322M206.985 266.109L232.615 269.383M232.615 269.383L193.361 292.609" stroke="#6E33E5" stroke-width="1.5"/>
<path d="M221.003 371.5C239.403 352.7 260.669 372.5 267.003 382C353.157 357.669 343.558 231.885 329.126 170.523M221.003 371.5C293.003 318.5 294.503 282 294.503 282M221.003 371.5C216.324 377.146 205.849 388.766 195.75 372.818" stroke="#6E33E5" stroke-width="1.5"/>
<path d="M130.813 280.975C130.813 280.975 158.102 299.405 157.003 326.999" stroke="#6E33E5" stroke-width="1.5"/>
<path d="M289.578 123.739L289.596 123.883C289.93 126.545 289.402 129.275 287.768 131.404C281.694 139.321 271.882 146.84 271.882 146.84M289.578 123.739C289.578 123.739 286.664 113.533 285.021 106.094M289.578 123.739C289.578 123.739 298.264 127.458 298.716 132.386L308.461 138.641L310.436 141.679M310.436 141.679C310.436 141.679 307.853 145.554 302.992 147.372M310.436 141.679C317.332 147.759 323.428 144.354 322.938 154.815" stroke="#6E33E5" stroke-width="1.5"/>
<path fill-rule="evenodd" clip-rule="evenodd" d="M297.995 132.182C297.995 132.182 297.994 132.183 298.716 132.386C299.438 132.589 299.438 132.59 299.438 132.59L299.437 132.593L299.436 132.599C298.461 135.896 293.36 140.225 291.818 141.476C291.585 141.666 291.242 141.598 291.091 141.338C290.969 141.128 291.014 140.862 291.198 140.703C292.418 139.647 296.793 135.686 297.994 132.184L297.995 132.182Z" fill="#6E33E5"/>
<path d="M288.684 181.028V184.214C288.684 186.174 288.137 188.098 287.216 189.827C275.929 211.013 284.806 221.437 281.08 229.176M288.55 233.361C277.614 222.425 256.682 236.932 242.243 242.023C237.75 243.607 232.928 243.487 228.167 243.301C222.663 243.086 214.643 242.879 206.539 243.043C205.129 243.072 203.764 243.54 202.623 244.37L193.609 250.925L190.238 259.243C190.238 259.243 193.609 261.631 197.687 254.405L206.658 249.348L196.599 259.57L191.815 266.474C192.756 267.231 193.845 267.171 194.934 266.692C196.054 267.724 196.687 267.938 198.076 267.487C200.839 270.286 205.883 266.692 205.883 266.692L213.08 263.74C214.401 263.199 215.856 263.09 217.263 263.333C225.907 264.828 232.727 263.503 236.206 262.502C237.916 262.01 239.64 261.523 241.415 261.397C255.946 260.365 272.038 262.907 292.947 258.042C294.922 257.583 296.943 257.308 298.956 257.066C303.922 256.468 305.375 254.9 306.148 249.696C306.294 248.712 306.519 247.73 306.884 246.804C314.018 228.704 322.784 219.513 324.395 198.523C324.751 193.881 325.883 189.321 327.229 184.864C331.224 171.636 331.14 151.308 307.35 148.035C288.586 144.939 280.729 147.82 268.521 146.745C266.952 146.607 265.386 147.129 264.273 148.243L262.987 149.528C261.961 150.555 260.568 151.132 259.117 151.132V151.132C257.653 151.132 256.25 150.545 255.221 149.503L253.16 147.416C252.134 146.376 250.784 145.716 249.333 145.544L239.262 144.35C236.967 144.078 234.606 144.309 232.538 145.34C217.335 152.924 215.537 168.795 215.328 177.49C215.275 179.692 214.393 181.796 213.011 183.513C209.636 187.706 203.455 197.019 200.963 211.385M182.596 220.758C187.775 217.773 196.753 209.14 204.774 212.628M214.207 235.482C214.207 235.482 203.059 243.096 185.925 245.347" stroke="#6E33E5" stroke-width="1.5"/>
<path d="M229.111 162.445C229.111 162.445 221.4 177.79 222.181 192.316C222.378 195.976 222.316 199.707 221.742 203.327C221.212 206.67 220.75 211.449 220.961 217.397C220.999 218.466 220.706 219.521 220.177 220.451C216.439 227.025 215.07 235.676 210.79 242.716" stroke="#6E33E5" stroke-width="1.5"/>
<path d="M282.718 260.016L278.316 283.761C276.72 292.369 272.558 300.294 265.824 305.888C252.736 316.76 227.48 335.479 193.779 349.901" stroke="#6E33E5" stroke-width="1.5"/>
<path d="M190.158 341.644C212.91 387.225 169.176 397.117 156.596 443.618C156.371 449.181 155.11 452.422 152.598 455.119C151.382 456.424 150.272 457.85 149.652 459.522L142.869 477.815C141.851 480.56 139.233 482.382 136.306 482.382H126.027C123.859 482.382 121.741 481.681 120.204 480.151C118.914 478.866 117.245 477.025 115.507 474.627C113.879 472.379 111.691 470.581 109.167 469.425C97.0051 463.852 93.477 456.029 93.477 456.029C90.0027 452.802 83.4264 449.204 88.4517 445.73C105.145 448.806 110.482 448.625 125.985 440.966C128.647 439.651 130.817 437.481 132.024 434.768C144.159 407.483 144.112 375.778 152.193 347.378C153.007 344.519 153.463 341.564 153.463 338.592V334.916C153.463 332.043 154.587 329.283 156.595 327.228L164.876 318.754C170.959 311.948 178.682 302.695 188.019 293.913" stroke="#6E33E5" stroke-width="1.5"/>
<path d="M142.212 478.471C134.918 475.593 130.698 465.144 122.413 461.776C122.174 461.679 121.918 461.639 121.661 461.638C119.208 461.627 114.849 460.975 112.794 458.517C112.263 457.883 111.522 457.394 110.699 457.319C108.94 457.157 106.632 456.54 105.307 454.94C104.777 454.3 104.05 453.779 103.221 453.718C101.315 453.576 98.7719 453.06 97.3802 451.744C96.896 451.286 96.324 450.884 95.6697 450.757C91.1696 449.888 88.647 446.427 88.647 446.427" stroke="#6E33E5" stroke-width="1.5"/>
<path d="M253.483 105.346C254.135 107.19 254.153 109.031 253.69 110.506C253.226 111.981 252.301 113.046 251.082 113.477C249.864 113.908 248.475 113.662 247.187 112.807C245.899 111.951 244.755 110.508 244.103 108.664C243.45 106.82 243.432 104.979 243.896 103.504C244.36 102.029 245.285 100.964 246.503 100.533C247.722 100.102 249.111 100.348 250.399 101.204C251.687 102.059 252.831 103.502 253.483 105.346Z" stroke="#6E33E5" stroke-width="1.5"/>
<path d="M252.893 104.017L272.949 96.4033" stroke="#6E33E5" stroke-width="1.5"/>
<path d="M132.393 320.777C126.442 356.453 106.899 349.393 83.4648 399.357C83.4648 399.357 82.6054 403.396 79.6668 406.627C77.8993 408.571 76.2117 410.771 75.8857 413.378C74.9049 421.221 74.0109 425.887 72.17 429.109C69.9295 433.03 64.6555 433.119 60.4178 431.559C58.312 430.783 56.2385 429.808 54.1393 428.793C48.1675 425.907 41.5111 425.166 34.9447 424.232C26.0995 422.973 19.2835 419.865 16.0472 418.151C14.6518 417.412 13.1772 416.837 11.6282 416.53C6.64542 415.542 0.708752 413.752 1.01109 407.493L15.5542 406.534C31.2298 403.829 35.9787 402.05 49.1581 396.302C54.436 393.999 58.8488 390.016 61.4385 384.873C77.3368 353.302 76.615 335.218 99.7971 289.161" stroke="#6E33E5" stroke-width="1.5"/>
<path d="M77.37 395.978C77.37 395.978 76.9776 402.491 71.2789 406.64" stroke="#6E33E5" stroke-width="1.5"/>
<path d="M320.238 118.753C322.831 81.1824 312.617 40.8344 285.533 2C286.921 2.31128 288.19 2.62257 289.483 2.95779C300.669 5.93523 311.555 9.9432 322.001 14.9302C336.542 21.8761 350.054 30.7959 362.156 41.4372C362.239 41.4878 362.312 41.5526 362.372 41.6288C384.748 61.1478 401.973 85.8766 412.526 113.631C423.079 141.386 426.635 171.312 422.88 200.767V201.341C419.337 238.408 397.068 284.717 362.372 314.361C361.893 314.819 361.389 315.251 360.863 315.654C358.517 317.713 356.026 319.701 353.488 321.64C352.961 322.071 352.411 322.454 351.884 322.862L350.232 324.083C350.07 324.181 349.918 324.293 349.777 324.418C348.053 325.711 346.305 326.908 344.485 328.105C343.91 328.513 343.144 329.039 342.689 329.303C342.234 329.566 341.827 329.877 341.372 330.141L339.768 331.194C337.277 332.751 334.763 334.235 332.201 335.696C331.531 336.031 330.884 336.414 330.214 336.774C328.178 337.875 326.119 338.929 324.036 339.982C323.389 340.269 322.767 340.605 322.144 340.916C320.732 341.6 319.312 342.265 317.886 342.91M133.225 281.885C119.505 281.492 105.452 279.609 91.2197 276.073C107.006 300.577 128.349 320.711 153.259 335.006" stroke="#6E33E5" stroke-width="2"/>
<path d="M286.498 2.13086C322.75 35.3697 348.108 72.9996 356.464 119.635M93.014 277.119C93.014 277.119 119.265 298.22 153.546 309.314M338.26 250.794C351.53 217.852 358.068 187.19 359.122 159.652" stroke="#6E33E5" stroke-width="1.5"/>
<path d="M289.525 120.435C307.717 120.197 361.483 116.057 375.391 123.239M375.391 123.239C361.426 140.482 359.726 172.63 336.213 209.823M375.391 123.239C344.825 125.572 351.386 173.398 333.22 191.958" stroke="#6E33E5" stroke-width="1.5"/>
<path d="M239.268 109.373L244.07 108" stroke="#6E33E5" stroke-width="1.5"/>
<defs>
<linearGradient id="paint0_linear_3169_6191" x1="231.874" y1="77.7099" x2="249.315" y2="101.844" gradientUnits="userSpaceOnUse">
<stop stop-color="#FFEDD0"/>
<stop offset="1" stop-color="#FFE6BF" stop-opacity="0"/>
</linearGradient>
<linearGradient id="paint1_linear_3169_6191" x1="223.199" y1="94.2422" x2="239.089" y2="110.41" gradientUnits="userSpaceOnUse">
<stop stop-color="#FFEDD0"/>
<stop offset="1" stop-color="#FFE6BF" stop-opacity="0"/>
</linearGradient>
<linearGradient id="paint2_linear_3169_6191" x1="233.689" y1="51.6741" x2="272.808" y2="151.083" gradientUnits="userSpaceOnUse">
<stop stop-color="#FFCBA9"/>
<stop offset="1" stop-color="#FF998F"/>
</linearGradient>
<linearGradient id="paint3_linear_3169_6191" x1="233.032" y1="95.5581" x2="272.807" y2="151.083" gradientUnits="userSpaceOnUse">
<stop stop-color="#FFCBA9"/>
<stop offset="1" stop-color="#FF998F"/>
</linearGradient>
<linearGradient id="paint4_linear_3169_6191" x1="285.408" y1="116.684" x2="286.537" y2="222.399" gradientUnits="userSpaceOnUse">
<stop stop-color="#EC7F73"/>
<stop offset="1" stop-color="#EC7F73" stop-opacity="0"/>
</linearGradient>
<linearGradient id="paint5_linear_3169_6191" x1="278.533" y1="95.5367" x2="279.662" y2="201.251" gradientUnits="userSpaceOnUse">
<stop stop-color="#EC7F73"/>
<stop offset="1" stop-color="#EC7F73" stop-opacity="0"/>
</linearGradient>
<linearGradient id="paint6_linear_3169_6191" x1="278.533" y1="95.5367" x2="279.662" y2="201.251" gradientUnits="userSpaceOnUse">
<stop stop-color="#EC7F73"/>
<stop offset="1" stop-color="#EC7F73" stop-opacity="0"/>
</linearGradient>
<linearGradient id="paint7_linear_3169_6191" x1="240.749" y1="98.2545" x2="247.804" y2="134.18" gradientUnits="userSpaceOnUse">
<stop stop-color="#C5D8FF"/>
<stop offset="1" stop-color="#C6D9FF" stop-opacity="0"/>
</linearGradient>
<linearGradient id="paint8_linear_3169_6191" x1="240.749" y1="98.2545" x2="247.804" y2="134.18" gradientUnits="userSpaceOnUse">
<stop stop-color="#C5D8FF"/>
<stop offset="1" stop-color="#C6D9FF" stop-opacity="0"/>
</linearGradient>
<linearGradient id="paint9_linear_3169_6191" x1="240.749" y1="98.2545" x2="247.804" y2="134.18" gradientUnits="userSpaceOnUse">
<stop stop-color="#C5D8FF"/>
<stop offset="1" stop-color="#C6D9FF" stop-opacity="0"/>
</linearGradient>
<linearGradient id="paint10_linear_3169_6191" x1="240.749" y1="98.2545" x2="247.804" y2="134.18" gradientUnits="userSpaceOnUse">
<stop stop-color="#C5D8FF"/>
<stop offset="1" stop-color="#C6D9FF" stop-opacity="0"/>
</linearGradient>
<linearGradient id="paint11_linear_3169_6191" x1="0.690078" y1="4.79899" x2="1.72157" y2="14.9968" gradientUnits="userSpaceOnUse">
<stop stop-color="white"/>
<stop offset="0.833333" stop-color="white" stop-opacity="0"/>
</linearGradient>
<linearGradient id="paint12_linear_3169_6191" x1="0.690078" y1="4.79899" x2="1.72157" y2="14.9968" gradientUnits="userSpaceOnUse">
<stop stop-color="white"/>
<stop offset="0.833333" stop-color="white" stop-opacity="0"/>
</linearGradient>
<linearGradient id="paint13_linear_3169_6191" x1="0.43963" y1="4.79899" x2="2.03509" y2="14.8479" gradientUnits="userSpaceOnUse">
<stop stop-color="white"/>
<stop offset="0.833333" stop-color="white" stop-opacity="0"/>
</linearGradient>
<linearGradient id="paint14_linear_3169_6191" x1="0.43963" y1="4.79899" x2="2.03509" y2="14.8479" gradientUnits="userSpaceOnUse">
<stop stop-color="white"/>
<stop offset="0.833333" stop-color="white" stop-opacity="0"/>
</linearGradient>
<linearGradient id="paint15_linear_3169_6191" x1="576.277" y1="11.6161" x2="163.684" y2="-106.662" gradientUnits="userSpaceOnUse">
<stop stop-color="#BC72D5"/>
<stop offset="0.991726" stop-color="#685FCD"/>
</linearGradient>
<linearGradient id="paint16_linear_3169_6191" x1="-0.112271" y1="81.1924" x2="154.095" y2="343.665" gradientUnits="userSpaceOnUse">
<stop stop-color="#EFC0FF"/>
<stop offset="0.991726" stop-color="#9187FF"/>
</linearGradient>
<linearGradient id="paint17_linear_3169_6191" x1="259.834" y1="240.918" x2="26.7674" y2="300.029" gradientUnits="userSpaceOnUse">
<stop stop-color="#6556BB"/>
<stop offset="1" stop-color="#6556BB" stop-opacity="0"/>
</linearGradient>
<linearGradient id="paint18_linear_3169_6191" x1="290.374" y1="52.2277" x2="309.731" y2="382.969" gradientUnits="userSpaceOnUse">
<stop stop-color="#5E1896"/>
<stop offset="1" stop-color="#210C42"/>
</linearGradient>
<linearGradient id="paint19_linear_3169_6191" x1="290.374" y1="52.2277" x2="309.731" y2="382.969" gradientUnits="userSpaceOnUse">
<stop stop-color="#5E1896"/>
<stop offset="1" stop-color="#210C42"/>
</linearGradient>
<linearGradient id="paint20_linear_3169_6191" x1="290.374" y1="52.2277" x2="309.731" y2="382.969" gradientUnits="userSpaceOnUse">
<stop stop-color="#5E1896"/>
<stop offset="1" stop-color="#210C42"/>
</linearGradient>
<linearGradient id="paint21_linear_3169_6191" x1="290.374" y1="52.2277" x2="309.731" y2="382.969" gradientUnits="userSpaceOnUse">
<stop stop-color="#5E1896"/>
<stop offset="1" stop-color="#210C42"/>
</linearGradient>
<linearGradient id="paint22_linear_3169_6191" x1="290.374" y1="52.2277" x2="309.731" y2="382.969" gradientUnits="userSpaceOnUse">
<stop stop-color="#5E1896"/>
<stop offset="1" stop-color="#210C42"/>
</linearGradient>
<linearGradient id="paint23_linear_3169_6191" x1="290.374" y1="52.2277" x2="309.731" y2="382.969" gradientUnits="userSpaceOnUse">
<stop stop-color="#5E1896"/>
<stop offset="1" stop-color="#210C42"/>
</linearGradient>
<linearGradient id="paint24_linear_3169_6191" x1="290.374" y1="52.2277" x2="309.731" y2="382.969" gradientUnits="userSpaceOnUse">
<stop stop-color="#5E1896"/>
<stop offset="1" stop-color="#210C42"/>
</linearGradient>
<linearGradient id="paint25_linear_3169_6191" x1="290.374" y1="52.2277" x2="309.731" y2="382.969" gradientUnits="userSpaceOnUse">
<stop stop-color="#5E1896"/>
<stop offset="1" stop-color="#210C42"/>
</linearGradient>
<linearGradient id="paint26_linear_3169_6191" x1="291.502" y1="242.46" x2="176.977" y2="454.649" gradientUnits="userSpaceOnUse">
<stop stop-color="#321058"/>
<stop offset="1" stop-color="#321058" stop-opacity="0"/>
</linearGradient>
<linearGradient id="paint27_linear_3169_6191" x1="291.502" y1="242.46" x2="176.977" y2="454.649" gradientUnits="userSpaceOnUse">
<stop stop-color="#321058"/>
<stop offset="1" stop-color="#321058" stop-opacity="0"/>
</linearGradient>
<linearGradient id="paint28_linear_3169_6191" x1="291.502" y1="242.46" x2="176.977" y2="454.649" gradientUnits="userSpaceOnUse">
<stop stop-color="#321058"/>
<stop offset="1" stop-color="#321058" stop-opacity="0"/>
</linearGradient>
<linearGradient id="paint29_linear_3169_6191" x1="291.502" y1="242.46" x2="176.977" y2="454.649" gradientUnits="userSpaceOnUse">
<stop stop-color="#321058"/>
<stop offset="1" stop-color="#321058" stop-opacity="0"/>
</linearGradient>
<linearGradient id="paint30_linear_3169_6191" x1="291.502" y1="242.46" x2="176.977" y2="454.649" gradientUnits="userSpaceOnUse">
<stop stop-color="#321058"/>
<stop offset="1" stop-color="#321058" stop-opacity="0"/>
</linearGradient>
<linearGradient id="paint31_linear_3169_6191" x1="257.775" y1="22.6297" x2="434.303" y2="342.89" gradientUnits="userSpaceOnUse">
<stop stop-color="#EFC0FF"/>
<stop offset="0.991726" stop-color="#9187FF"/>
</linearGradient>
<linearGradient id="paint32_linear_3169_6191" x1="257.775" y1="22.6297" x2="434.303" y2="342.89" gradientUnits="userSpaceOnUse">
<stop stop-color="#EFC0FF"/>
<stop offset="0.991726" stop-color="#9187FF"/>
</linearGradient>
<linearGradient id="paint33_linear_3169_6191" x1="257.775" y1="22.6297" x2="434.303" y2="342.89" gradientUnits="userSpaceOnUse">
<stop stop-color="#EFC0FF"/>
<stop offset="0.991726" stop-color="#9187FF"/>
</linearGradient>
<linearGradient id="paint34_linear_3169_6191" x1="257.775" y1="22.6297" x2="434.303" y2="342.89" gradientUnits="userSpaceOnUse">
<stop stop-color="#EFC0FF"/>
<stop offset="0.991726" stop-color="#9187FF"/>
</linearGradient>
<linearGradient id="paint35_linear_3169_6191" x1="220.362" y1="318.582" x2="360.569" y2="4.29276" gradientUnits="userSpaceOnUse">
<stop stop-color="#B89FFE"/>
<stop offset="1" stop-color="#B89FFE" stop-opacity="0"/>
</linearGradient>
<linearGradient id="paint36_linear_3169_6191" x1="220.362" y1="318.582" x2="360.569" y2="4.29276" gradientUnits="userSpaceOnUse">
<stop stop-color="#B89FFE"/>
<stop offset="1" stop-color="#B89FFE" stop-opacity="0"/>
</linearGradient>
<linearGradient id="paint37_linear_3169_6191" x1="268.167" y1="-12.2891" x2="48.0918" y2="567.201" gradientUnits="userSpaceOnUse">
<stop stop-color="white"/>
<stop offset="1" stop-color="white" stop-opacity="0"/>
</linearGradient>
<linearGradient id="paint38_linear_3169_6191" x1="656.296" y1="-104.954" x2="543.521" y2="645.387" gradientUnits="userSpaceOnUse">
<stop stop-color="#A10BD2"/>
<stop offset="1" stop-color="#16182B"/>
</linearGradient>
<linearGradient id="paint39_linear_3169_6191" x1="656.296" y1="-104.954" x2="543.521" y2="645.387" gradientUnits="userSpaceOnUse">
<stop stop-color="#A10BD2"/>
<stop offset="1" stop-color="#16182B"/>
</linearGradient>
<linearGradient id="paint40_linear_3169_6191" x1="656.296" y1="-104.954" x2="543.521" y2="645.387" gradientUnits="userSpaceOnUse">
<stop stop-color="#A10BD2"/>
<stop offset="1" stop-color="#16182B"/>
</linearGradient>
<linearGradient id="paint41_linear_3169_6191" x1="656.296" y1="-104.954" x2="543.521" y2="645.387" gradientUnits="userSpaceOnUse">
<stop stop-color="#A10BD2"/>
<stop offset="1" stop-color="#16182B"/>
</linearGradient>
<linearGradient id="paint42_linear_3169_6191" x1="656.296" y1="-104.954" x2="543.521" y2="645.387" gradientUnits="userSpaceOnUse">
<stop stop-color="#A10BD2"/>
<stop offset="1" stop-color="#16182B"/>
</linearGradient>
<linearGradient id="paint43_linear_3169_6191" x1="656.296" y1="-104.954" x2="543.521" y2="645.387" gradientUnits="userSpaceOnUse">
<stop stop-color="#A10BD2"/>
<stop offset="1" stop-color="#16182B"/>
</linearGradient>
<linearGradient id="paint44_linear_3169_6191" x1="656.296" y1="-104.954" x2="543.521" y2="645.387" gradientUnits="userSpaceOnUse">
<stop stop-color="#A10BD2"/>
<stop offset="1" stop-color="#16182B"/>
</linearGradient>
<linearGradient id="paint45_linear_3169_6191" x1="656.296" y1="-104.954" x2="543.521" y2="645.387" gradientUnits="userSpaceOnUse">
<stop stop-color="#A10BD2"/>
<stop offset="1" stop-color="#16182B"/>
</linearGradient>
</defs>
</svg>
