<svg width="68" height="68" viewBox="0 0 68 68" fill="none" xmlns="http://www.w3.org/2000/svg">
<rect width="68" height="68" fill="#13161E"/>
<path fill-rule="evenodd" clip-rule="evenodd" d="M56.2918 21.0745L34.233 8.33887L11.4658 21.4835L33.5246 34.2192L56.2918 21.0745ZM37.4779 11.6813L33.6846 9.66871L30.8615 11.9783L30.5472 18.2612L23.8633 22.1201L33.6846 27.7904L43.8213 21.938L37.0655 18.0376L37.4779 11.6813Z" fill="#1A0C2A"/>
<path d="M29.9215 11.9304L29.9215 17.8474L22.5054 22.1291L33.3119 28.3683L44.4655 21.9288L37.3964 17.8474L37.3964 11.104" stroke="#704AB7" stroke-width="2.5"/>
<rect width="25.6368" height="28.1139" transform="matrix(0.866025 0.5 -2.20305e-08 1 11.3225 21.4004)" fill="url(#paint0_linear_3291_6221)"/>
<path style="mix-blend-mode:screen" opacity="0.7" d="M14.7093 24.5006L12.4394 23.0229L12.0112 49.4003L14.7093 51.0628L33.2091 60.8117L32.8828 57.7117L16.7819 48.8578C15.5036 48.1548 14.7093 46.8116 14.7093 45.3528V24.5006Z" fill="url(#paint1_linear_3291_6221)"/>
<path fill-rule="evenodd" clip-rule="evenodd" d="M56.2806 21.0811L33.5246 34.2192V62.1837L56.2806 49.0456L56.2806 21.0811ZM50.3055 31.8736L39.4997 38.1123L39.4997 51.3913L48.0682 46.2758L50.8176 48.4644H53.567L54.6066 45.8928L53.7924 43.0241L50.5965 40.958L50.3055 31.8736Z" fill="#1A0C2A"/>
<path d="M51.4361 49.4706L47.7874 46.6059L39.4997 51.3908L39.4997 38.1118L50.3055 31.8731L50.3055 40.9657L54.9485 43.8148" stroke="#704AB7" stroke-width="2.5"/>
<path d="M34 34.6517L55.7053 22.1201M34 34.6517V61.325M34 34.6517L12.6692 22.2064" stroke="#704AB7" stroke-width="2.5"/>
<path d="M55.0306 47.2763L33.248 61.1455L11.9403 48.8053V22.1079L30.5347 11.3969L33.7867 9.52369L36.0178 10.8095L37.4689 11.6458L55.0306 21.7667V47.2763Z" stroke="#704AB7" stroke-width="2.5"/>
<path d="M17.381 43.4271C17.381 40.1523 19.6801 38.8249 22.5162 40.4623C25.3522 42.0997 27.6513 46.0819 27.6513 49.3567L27.6513 51.5651C27.6513 51.6174 27.6146 51.6386 27.5694 51.6124L17.463 45.7775C17.4177 45.7514 17.381 45.6878 17.381 45.6356L17.381 43.4271Z" fill="#704AB7"/>
<circle r="3.11437" transform="matrix(0.866025 0.5 -2.20305e-08 1 22.5162 36.7458)" fill="#704AB7"/>
<defs>
<linearGradient id="paint0_linear_3291_6221" x1="-42.0866" y1="-59.9937" x2="40.1113" y2="41.1725" gradientUnits="userSpaceOnUse">
<stop stop-color="#A10BD2"/>
<stop offset="1" stop-color="#16182B"/>
</linearGradient>
<linearGradient id="paint1_linear_3291_6221" x1="14.5307" y1="23.3737" x2="19.1853" y2="71.4068" gradientUnits="userSpaceOnUse">
<stop stop-color="#591536"/>
<stop offset="1" stop-color="#151C59" stop-opacity="0"/>
</linearGradient>
</defs>
</svg>
