<svg width="120" height="120" viewBox="0 0 120 120" fill="none" xmlns="http://www.w3.org/2000/svg">
<rect opacity="0.5" width="120" height="120" rx="24" fill="#13181E"/>
<circle cx="60" cy="60" r="38.125" fill="#361651" stroke="#704AB7" stroke-width="3.75"/>
<path d="M83.75 76.25C85.1307 76.25 86.25 75.1307 86.25 73.75V70C86.25 68.0109 85.4598 66.1032 84.0533 64.6967C82.6468 63.2902 80.7391 62.5 78.75 62.5H66.25C64.2609 62.5 62.3532 63.2902 60.9467 64.6967C59.5402 66.1032 58.75 68.0109 58.75 70V76.25" fill="#704AB7"/>
<path d="M36.25 76.25C34.8693 76.25 33.75 75.1307 33.75 73.75V70C33.75 68.0109 34.5402 66.1032 35.9467 64.6967C37.3532 63.2902 39.2609 62.5 41.25 62.5H53.75C55.7391 62.5 57.6468 63.2902 59.0533 64.6967C60.4598 66.1032 61.25 68.0109 61.25 70V76.25" fill="#704AB7"/>
<path d="M46.25 58.125C50.3921 58.125 53.75 54.7671 53.75 50.625C53.75 46.4829 50.3921 43.125 46.25 43.125C42.1079 43.125 38.75 46.4829 38.75 50.625C38.75 54.7671 42.1079 58.125 46.25 58.125Z" fill="#704AB7"/>
<mask id="path-6-outside-1_3235_6511" maskUnits="userSpaceOnUse" x="42" y="59.5" width="36" height="20" fill="black">
<rect fill="white" x="42" y="59.5" width="36" height="20"/>
<path d="M75 76.25V70C75 68.0109 74.2098 66.1032 72.8033 64.6967C71.3968 63.2902 69.4891 62.5 67.5 62.5H52.5C50.5109 62.5 48.6032 63.2902 47.1967 64.6967C45.7902 66.1032 45 68.0109 45 70V76.25"/>
</mask>
<path d="M75 76.25V70C75 68.0109 74.2098 66.1032 72.8033 64.6967C71.3968 63.2902 69.4891 62.5 67.5 62.5H52.5C50.5109 62.5 48.6032 63.2902 47.1967 64.6967C45.7902 66.1032 45 68.0109 45 70V76.25" fill="#704AB7"/>
<path d="M75 77.5C75.6904 77.5 76.25 76.9404 76.25 76.25C76.25 75.5596 75.6904 75 75 75V77.5ZM45 75C44.3096 75 43.75 75.5596 43.75 76.25C43.75 76.9404 44.3096 77.5 45 77.5V75ZM45 77.5H75V75H45V77.5ZM72.5 76.25C72.5 77.6307 73.6193 78.75 75 78.75C76.3807 78.75 77.5 77.6307 77.5 76.25H72.5ZM67.5 62.5V60V62.5ZM52.5 62.5V60V62.5ZM45 70H42.5H45ZM42.5 76.25C42.5 77.6307 43.6193 78.75 45 78.75C46.3807 78.75 47.5 77.6307 47.5 76.25H42.5ZM77.5 76.25V70H72.5V76.25H77.5ZM77.5 70C77.5 67.3478 76.4464 64.8043 74.5711 62.9289L71.0355 66.4645C71.9732 67.4022 72.5 68.6739 72.5 70H77.5ZM74.5711 62.9289C72.6957 61.0536 70.1522 60 67.5 60V65C68.8261 65 70.0978 65.5268 71.0355 66.4645L74.5711 62.9289ZM67.5 60H52.5V65H67.5V60ZM52.5 60C49.8478 60 47.3043 61.0536 45.4289 62.9289L48.9645 66.4645C49.9021 65.5268 51.1739 65 52.5 65V60ZM45.4289 62.9289C43.5536 64.8043 42.5 67.3478 42.5 70H47.5C47.5 68.6739 48.0268 67.4021 48.9645 66.4645L45.4289 62.9289ZM42.5 70V76.25H47.5V70H42.5Z" fill="#361651" mask="url(#path-6-outside-1_3235_6511)"/>
<path d="M73.75 58.125C77.8921 58.125 81.25 54.7671 81.25 50.625C81.25 46.4829 77.8921 43.125 73.75 43.125C69.6079 43.125 66.25 46.4829 66.25 50.625C66.25 54.7671 69.6079 58.125 73.75 58.125Z" fill="#704AB7"/>
<path d="M60 59.375C64.8325 59.375 68.75 55.4575 68.75 50.625C68.75 45.7925 64.8325 41.875 60 41.875C55.1675 41.875 51.25 45.7925 51.25 50.625C51.25 55.4575 55.1675 59.375 60 59.375Z" fill="#704AB7" stroke="#361651" stroke-width="2.5" stroke-linecap="round" stroke-linejoin="round"/>
</svg>
