<svg width="68" height="68" viewBox="0 0 68 68" fill="none" xmlns="http://www.w3.org/2000/svg">
<g clip-path="url(#clip0_3291_6237)">
<rect width="68" height="68" fill="#13161E"/>
<path d="M16.2651 12.3424V49.1061L38.7072 62.7633L44.9821 59.589L44.3916 23.6373L21.728 9.68481L16.2651 12.3424Z" fill="url(#paint0_linear_3291_6237)"/>
<path style="mix-blend-mode:screen" opacity="0.7" d="M18.6024 42.9222V14.5389L16.4846 13.095L16.1477 49.6756L38.3367 62.6713V59.639L23.8063 51.697C20.5979 49.9434 18.6024 46.5785 18.6024 42.9222Z" fill="url(#paint1_linear_3291_6237)"/>
<path d="M44.9616 24.0099L21.5653 9.75623L16.3101 12.5638L38.9145 26.3136V62.8118L44.9616 60.1482V24.0099Z" fill="#1A0C2A"/>
<rect width="18.184" height="2.7596" rx="1.3798" transform="matrix(0.866025 0.5 -2.20305e-08 1 19.5953 22.626)" fill="#704AB7"/>
<rect width="18.184" height="2.7596" rx="1.3798" transform="matrix(0.866025 0.5 -2.20305e-08 1 19.5953 30.4011)" fill="#704AB7"/>
<rect width="18.184" height="2.7596" rx="1.3798" transform="matrix(0.866025 0.5 -2.20305e-08 1 19.5953 38.1763)" fill="#704AB7"/>
<path d="M16.1504 13.1848C16.1504 12.7617 16.2561 12.619 16.2872 12.5868C16.3306 12.576 16.5071 12.5558 16.8735 12.7673L36.8149 24.2805C37.2976 24.5592 37.805 25.0877 38.1945 25.7623C38.584 26.437 38.788 27.1406 38.788 27.698L38.788 62.3732C38.788 62.7962 38.6823 62.9389 38.6512 62.9711C38.6077 62.9819 38.4313 63.0022 38.0649 62.7906L18.1235 51.2774C17.6408 50.9987 17.1334 50.4703 16.7439 49.7956C16.3544 49.1209 16.1504 48.4173 16.1504 47.86L16.1504 13.1848ZM16.2957 12.5791C16.2957 12.5792 16.295 12.5798 16.2933 12.581C16.2948 12.5797 16.2957 12.5791 16.2957 12.5791ZM16.2791 12.5892C16.2773 12.5901 16.2763 12.5904 16.2763 12.5903C16.2763 12.5903 16.2772 12.5898 16.2791 12.5892ZM38.6427 62.9788C38.6426 62.9788 38.6434 62.9781 38.6451 62.9769C38.6436 62.9782 38.6427 62.9788 38.6427 62.9788ZM38.6592 62.9688C38.6611 62.9679 38.6621 62.9676 38.6621 62.9676C38.6621 62.9677 38.6612 62.9681 38.6592 62.9688Z" stroke="#704AB7" stroke-width="2.5"/>
<path d="M38.6849 62.9576L43.7026 60.2823C44.217 60.008 44.5077 59.3873 44.5077 58.5633V25.7088C44.5077 24.0355 43.3329 22.0006 41.8837 21.1639L22.6408 10.054C21.933 9.6454 21.2552 9.58426 20.7613 9.88451L16.194 12.661" stroke="#704AB7" stroke-width="2.5"/>
<path d="M41.9973 11.3714L48.9421 16.1326L39.0483 32.2653L32.2956 35.0391L31.5011 27.0387L41.9973 11.3714Z" fill="url(#paint2_linear_3291_6237)"/>
<path d="M41.4812 12.6135L41.4812 12.6135L41.4857 12.6061C41.7019 12.2528 41.8823 12.1792 41.9276 12.1673C41.9499 12.1614 41.9709 12.1601 42.0016 12.1673C42.0357 12.1752 42.1048 12.1996 42.2041 12.2755L42.2212 12.2886L42.2387 12.301L47.9442 16.3592C47.9657 16.4062 47.9913 16.4861 48.0051 16.5917C48.0189 16.6976 48.0174 16.8022 48.0041 16.8896C47.9976 16.9321 47.9891 16.9652 47.9813 16.9887C47.9752 17.007 47.9704 17.0168 47.969 17.0195L38.5202 32.7367L32.6251 34.5801L32.0894 27.7233L41.4812 12.6135ZM47.9311 16.3337C47.9298 16.3319 47.9292 16.3309 47.9292 16.3308C47.9292 16.3308 47.9299 16.3317 47.9311 16.3337Z" stroke="#704AB7" stroke-width="2.5"/>
<path d="M32.8335 26.6349L38.9105 30.814" stroke="#704AB7" stroke-width="3"/>
<path d="M38.6855 16.3151L44.8661 20.788" stroke="#704AB7" stroke-width="3"/>
</g>
<defs>
<linearGradient id="paint0_linear_3291_6237" x1="-30.8783" y1="-103.582" x2="120.141" y2="6.69497" gradientUnits="userSpaceOnUse">
<stop stop-color="#A10BD2"/>
<stop offset="1" stop-color="#16182B"/>
</linearGradient>
<linearGradient id="paint1_linear_3291_6237" x1="18.7849" y1="13.5551" x2="26.398" y2="76.2384" gradientUnits="userSpaceOnUse">
<stop stop-color="#591536"/>
<stop offset="1" stop-color="#151C59" stop-opacity="0"/>
</linearGradient>
<linearGradient id="paint2_linear_3291_6237" x1="58.0308" y1="-64.5234" x2="103.079" y2="23.3554" gradientUnits="userSpaceOnUse">
<stop stop-color="#A10BD2"/>
<stop offset="1" stop-color="#16182B"/>
</linearGradient>
<clipPath id="clip0_3291_6237">
<rect width="68" height="68" fill="white"/>
</clipPath>
</defs>
</svg>
