<svg width="68" height="68" viewBox="0 0 68 68" fill="none" xmlns="http://www.w3.org/2000/svg">
<rect width="68" height="68" fill="#13161E"/>
<ellipse rx="10.0105" ry="10.2155" transform="matrix(0.866025 0.5 -2.20305e-08 1 47.9734 49.2208)" fill="#704AB7"/>
<ellipse rx="10.0105" ry="10.2155" transform="matrix(0.866025 0.5 -2.20305e-08 1 46.8496 49.5723)" fill="#4B146B"/>
<path d="M54.4364 53.9525C54.4364 58.9281 51.0191 60.9451 46.8496 58.5379C42.6802 56.1306 39.2629 50.1676 39.2629 45.1921C39.2629 40.2165 42.6802 38.1995 46.8496 40.6068C51.0191 43.014 54.4364 48.977 54.4364 53.9525Z" stroke="#704AB7" stroke-width="2.5"/>
<ellipse rx="10.0105" ry="10.2155" transform="matrix(0.866025 0.5 -2.20305e-08 1 19.3163 49.2208)" fill="#704AB7"/>
<ellipse rx="10.0105" ry="10.2155" transform="matrix(0.866025 0.5 -2.20305e-08 1 18.1926 49.5723)" fill="#4B146B"/>
<path d="M25.7794 53.9525C25.7794 58.9281 22.3621 60.9451 18.1926 58.5379C14.0232 56.1306 10.6058 50.1676 10.6058 45.1921C10.6058 40.2165 14.0232 38.1995 18.1926 40.6068C22.3621 43.014 25.7794 48.977 25.7794 53.9525Z" stroke="#704AB7" stroke-width="2.5"/>
<ellipse rx="10.0105" ry="10.2155" transform="matrix(0.866025 0.5 -2.20305e-08 1 19.3163 20.8614)" fill="#704AB7"/>
<ellipse rx="10.0105" ry="10.2155" transform="matrix(0.866025 0.5 -2.20305e-08 1 18.1926 21.2129)" fill="#4B146B"/>
<path d="M25.7794 25.5932C25.7794 30.5687 22.3621 32.5857 18.1926 30.1785C14.0232 27.7712 10.6058 21.8083 10.6058 16.8327C10.6058 11.8572 14.0232 9.84017 18.1926 12.2474C22.3621 14.6547 25.7794 20.6176 25.7794 25.5932Z" stroke="#704AB7" stroke-width="2.5"/>
<path d="M46.8496 40.2981L46.8496 23.7666C46.8496 21.3577 45.602 18.462 43.6812 16.413L40.6163 13.1436" stroke="#704AB7" stroke-width="2.5"/>
<path d="M19.3163 30.2109L19.3163 41.9525" stroke="#704AB7" stroke-width="2.5"/>
<path d="M39.4973 10.0471C39.3227 9.99303 39.1377 9.98132 38.9576 10.013C38.7775 10.0447 38.6076 10.1188 38.462 10.2293C38.3163 10.3398 38.1991 10.4834 38.12 10.6482C38.0409 10.8131 38.0023 10.9944 38.0073 11.1771L37.3573 22.7971C37.3699 23.1284 37.4814 23.4484 37.6775 23.7157C37.8735 23.983 38.1451 24.1856 38.4573 24.2971C39.1073 24.5171 39.6773 24.2271 39.7273 23.6171L40.6473 13.4871L52.2273 16.9971C52.4188 17.0634 52.6218 17.0898 52.8239 17.0749C53.026 17.06 53.2229 17.0041 53.4026 16.9105C53.5823 16.8169 53.741 16.6876 53.8691 16.5306C53.9971 16.3735 54.0918 16.192 54.1473 15.9971C54.2489 15.5772 54.1838 15.1342 53.9656 14.7612C53.7474 14.3883 53.3932 14.1144 52.9773 13.9971L39.4973 10.0471ZM41.4073 12.2271L40.4673 10.7971L38.3573 12.3471L39.2773 13.7171L41.4073 12.2271Z" fill="#704AB7"/>
<ellipse rx="3.76789" ry="3.84508" transform="matrix(0.866025 0.5 -2.20305e-08 1 17.705 21.2129)" fill="#704AB7"/>
<ellipse rx="3.76789" ry="3.84508" transform="matrix(0.866025 0.5 -2.20305e-08 1 17.705 49.5723)" fill="#704AB7"/>
<ellipse rx="3.76789" ry="3.84508" transform="matrix(0.866025 0.5 -2.20305e-08 1 46.4055 49.5723)" fill="#704AB7"/>
</svg>
