<svg width="245" height="190" viewBox="0 0 245 190" fill="none" xmlns="http://www.w3.org/2000/svg">
<path d="M121.421 159.719C158.491 159.719 188.542 129.667 188.542 92.5971C188.542 55.5269 158.491 25.4756 121.421 25.4756C84.3503 25.4756 54.299 55.5269 54.299 92.5971C54.299 129.667 84.3503 159.719 121.421 159.719Z" fill="url(#paint0_linear_3169_6278)"/>
<path style="mix-blend-mode:screen" opacity="0.3" d="M69.6414 84.0918C66.6176 78.34 67.5313 70.0706 69.3719 64.4832C73.2634 52.6509 83.3931 44.1712 93.9303 38.3011C126.857 19.9349 163.05 42.6659 166.127 57.134C169.203 71.6022 154.709 79.2669 134.988 74.6194C115.268 69.972 100.458 91.855 86.8113 91.9076C81.6182 91.9076 76.2937 91.0662 72.2445 87.4508C71.1827 86.496 70.301 85.3583 69.6414 84.0918Z" fill="#CDD8FF"/>
<g opacity="0.7">
<path style="mix-blend-mode:screen" d="M81.1319 60.828C79.5787 56.1562 78.2818 51.4031 77.2469 46.5898C67.3715 56.1539 60.8675 68.6651 58.7124 82.2426C56.5573 95.8202 58.8678 109.73 65.2964 121.882C62.3925 111.208 62.326 99.9597 65.1033 89.2514C67.8807 78.5431 73.4058 68.7456 81.1319 60.828Z" fill="#6E6BFF"/>
<path style="mix-blend-mode:screen" d="M155.852 38.8922C144.457 31.5203 130.998 27.9968 117.452 28.8392C103.906 29.6816 90.9871 34.8455 80.5928 43.5725C81.5314 48.3983 82.7495 53.1655 84.2411 57.8501C94.0928 49.0461 106.446 43.5359 119.579 42.0877C132.712 40.6395 145.969 43.3255 157.502 49.7713C157.251 46.1058 156.699 42.4672 155.852 38.8922Z" fill="#8774FF"/>
<path style="mix-blend-mode:screen" d="M173.384 62.3852C173.381 60.0137 173.254 57.644 173.002 55.2859C169.177 49.9427 164.55 45.2221 159.284 41.291C159.902 44.6723 160.289 48.0919 160.441 51.5259C165.217 54.5568 169.569 58.2085 173.384 62.3852Z" fill="#6271FF"/>
<path style="mix-blend-mode:screen" d="M176.164 65.6131C178.616 68.6946 180.779 71.9953 182.626 75.4733C181.159 70.1242 178.998 64.9905 176.197 60.2031C176.25 62.013 176.239 63.8163 176.164 65.6131Z" fill="#7E7BFF"/>
</g>
<path style="mix-blend-mode:multiply" opacity="0.2" d="M166.626 44.7822C169.362 52.153 170.448 60.0343 169.806 67.8702C169.164 75.7061 166.812 83.3059 162.913 90.1334C159.015 96.961 153.666 102.85 147.244 107.386C140.822 111.921 133.483 114.992 125.744 116.382C118.006 117.772 110.057 117.448 102.458 115.432C94.8586 113.415 87.7943 109.757 81.7631 104.713C75.7319 99.6692 70.8807 93.3638 67.5517 86.2412C64.2227 79.1187 62.4969 71.3524 62.4961 63.4903C62.4961 63.3785 62.4961 63.2668 62.4961 63.155C57.0045 74.0796 54.6589 86.3161 55.7216 98.4971C56.7843 110.678 61.2132 122.323 68.5136 132.132C75.814 141.941 85.6981 149.526 97.0614 154.04C108.425 158.555 120.82 159.82 132.861 157.696C144.902 155.571 156.115 150.14 165.247 142.009C174.379 133.878 181.07 123.368 184.573 111.653C188.075 99.9384 188.251 87.4804 185.081 75.6714C181.91 63.8624 175.519 53.1676 166.62 44.7822H166.626Z" fill="url(#paint1_radial_3169_6278)"/>
<path style="mix-blend-mode:multiply" opacity="0.5" d="M184.085 82.751V83.0336C184.085 119.293 155.563 148.689 120.375 148.689C87.8039 148.689 60.9448 123.506 57.1256 91.0007C57.2833 127.122 85.7464 156.328 120.836 156.328C156.03 156.328 184.552 126.938 184.552 90.6786C184.549 88.0293 184.393 85.3823 184.085 82.751Z" fill="url(#paint2_linear_3169_6278)"/>
<path style="mix-blend-mode:multiply" opacity="0.5" d="M79.4572 135.804C83.0232 133.704 82.3291 125.915 77.907 118.407C73.4848 110.9 67.0091 106.517 63.4431 108.618C59.8771 110.718 60.5711 118.507 64.9933 126.014C69.4155 133.522 75.8912 137.905 79.4572 135.804Z" fill="url(#paint3_linear_3169_6278)"/>
<path style="mix-blend-mode:multiply" opacity="0.5" d="M61.6745 86.9968C64.0146 86.8784 66.1115 90.7765 66.3548 95.7066C66.598 100.637 64.902 104.719 62.5553 104.837C60.2086 104.955 58.1248 101.051 57.875 96.1273C57.6252 91.2038 59.3146 87.1085 61.6745 86.9968Z" fill="url(#paint4_linear_3169_6278)"/>
<path style="mix-blend-mode:multiply" opacity="0.5" d="M120.208 56.318C120.713 60.0345 117.186 63.8182 112.325 64.764C107.464 65.7099 103.125 63.4689 102.618 59.7418C102.111 56.0148 105.647 52.2513 110.501 51.2957C115.354 50.3402 119.705 52.5692 120.208 56.318Z" fill="url(#paint5_linear_3169_6278)"/>
<path style="mix-blend-mode:multiply" opacity="0.5" d="M79.6733 67.9924C81.8185 70.0165 81.5294 74.0738 79.0226 77.0535C76.5159 80.0332 72.7541 80.8056 70.603 78.7757C68.4519 76.7457 68.7564 72.6965 71.2536 69.7146C73.7509 66.7327 77.5142 65.9471 79.6733 67.9924Z" fill="url(#paint6_linear_3169_6278)"/>
<path style="mix-blend-mode:multiply" opacity="0.5" d="M100.208 149.787C100.747 147.506 105.072 146.566 109.871 147.684C114.67 148.801 118.14 151.568 117.608 153.849C117.076 156.13 112.744 157.07 107.945 155.953C103.146 154.835 99.6756 152.068 100.208 149.787Z" fill="url(#paint7_linear_3169_6278)"/>
<path style="mix-blend-mode:multiply" opacity="0.5" d="M161.668 127.152C160.281 126.009 161.116 122.715 163.528 119.797C165.94 116.878 169.017 115.445 170.404 116.595C171.791 117.746 170.956 121.033 168.544 123.951C166.131 126.87 163.055 128.303 161.668 127.152Z" fill="url(#paint8_linear_3169_6278)"/>
<path style="mix-blend-mode:multiply" opacity="0.5" d="M70.8772 99.3358C72.0407 98.9545 73.6315 100.65 74.4335 103.089C75.2354 105.528 74.9331 107.835 73.7761 108.217C72.6192 108.598 71.0153 106.902 70.2199 104.463C69.4245 102.024 69.7137 99.7105 70.8772 99.3358Z" fill="url(#paint9_linear_3169_6278)"/>
<path style="mix-blend-mode:multiply" opacity="0.5" d="M153.243 134.569C153.762 135.477 152.881 136.956 151.271 137.856C149.66 138.757 147.951 138.777 147.438 137.856C146.926 136.936 147.8 135.47 149.41 134.569C151.021 133.669 152.73 133.662 153.243 134.569Z" fill="url(#paint10_linear_3169_6278)"/>
<path style="mix-blend-mode:multiply" opacity="0.5" d="M156.47 129.297C156.786 129.849 156.247 130.75 155.274 131.302C154.301 131.854 153.256 131.861 152.94 131.302C152.625 130.743 153.164 129.849 154.137 129.297C155.11 128.745 156.155 128.719 156.47 129.297Z" fill="url(#paint11_linear_3169_6278)"/>
<path style="mix-blend-mode:multiply" opacity="0.5" d="M82.8475 120.456C81.8089 120.981 80.2182 119.917 79.2913 118.076C78.3644 116.235 78.4565 114.329 79.5017 113.803C80.5468 113.277 82.131 114.342 83.0579 116.183C83.9847 118.023 83.8861 119.93 82.8475 120.456Z" fill="url(#paint12_linear_3169_6278)"/>
<path style="mix-blend-mode:multiply" opacity="0.5" d="M86.3972 124.63C85.7398 124.946 84.8064 124.302 84.2411 123.197C83.6758 122.093 83.7415 120.929 84.3725 120.614C85.0036 120.298 85.9633 120.936 86.5221 122.047C87.0808 123.158 87.0217 124.315 86.3972 124.63Z" fill="url(#paint13_linear_3169_6278)"/>
<path style="mix-blend-mode:multiply" opacity="0.5" d="M68.6751 97.8632C68.1098 97.9355 67.5511 97.2058 67.4262 96.1672C67.3013 95.1286 67.6694 94.2938 68.2413 94.1952C68.8132 94.0966 69.3719 94.8525 69.4902 95.8911C69.6086 96.9297 69.247 97.8237 68.6751 97.8632Z" fill="url(#paint14_linear_3169_6278)"/>
<path style="mix-blend-mode:multiply" opacity="0.5" d="M175.592 80.9762C174.758 81.0748 173.949 79.9705 173.772 78.5112C173.594 77.0519 174.127 75.7766 174.955 75.678C175.783 75.5794 176.598 76.6837 176.769 78.1496C176.94 79.6155 176.421 80.8776 175.592 80.9762Z" fill="url(#paint15_linear_3169_6278)"/>
<path style="mix-blend-mode:multiply" opacity="0.5" d="M172.201 99.2003C170.953 98.8387 170.467 96.781 171.091 94.5974C171.716 92.4139 173.24 90.9191 174.478 91.2767C175.716 91.6343 176.213 93.696 175.575 95.8849C174.937 98.0739 173.439 99.5579 172.201 99.2003Z" fill="url(#paint16_linear_3169_6278)"/>
<path style="mix-blend-mode:multiply" opacity="0.5" d="M174.626 86.0699C174.087 86.1357 173.548 85.4126 173.436 84.4594C173.325 83.5063 173.666 82.6714 174.212 82.6057C174.758 82.54 175.283 83.2631 175.402 84.2228C175.52 85.1825 175.172 85.991 174.626 86.0699Z" fill="url(#paint17_linear_3169_6278)"/>
<path style="mix-blend-mode:multiply" opacity="0.5" d="M162.623 102.938C161.85 102.612 161.684 101.228 162.268 99.8653C162.852 98.5025 163.953 97.6473 164.734 97.9793C165.516 98.3112 165.664 99.6845 165.083 101.061C164.503 102.438 163.414 103.253 162.623 102.938Z" fill="url(#paint18_linear_3169_6278)"/>
<path style="mix-blend-mode:multiply" opacity="0.5" d="M92.8261 144.732C92.1687 145.547 90.4793 145.277 89.0332 144.134C87.587 142.99 86.9494 141.392 87.6002 140.571C88.2509 139.749 89.9469 140.025 91.3931 141.169C92.8392 142.313 93.4768 143.917 92.8261 144.732Z" fill="url(#paint19_linear_3169_6278)"/>
<path style="mix-blend-mode:multiply" opacity="0.5" d="M98.9196 145.77C98.5186 146.263 97.4866 146.099 96.6123 145.402C95.738 144.706 95.3436 143.733 95.7381 143.24C96.1325 142.747 97.1711 142.904 98.0453 143.601C98.9196 144.298 99.314 145.271 98.9196 145.77Z" fill="url(#paint20_linear_3169_6278)"/>
<path style="mix-blend-mode:multiply" opacity="0.5" d="M88.0274 137.265C87.633 137.758 86.6009 137.593 85.7267 136.896C84.8524 136.2 84.458 135.227 84.8524 134.734C85.2468 134.241 86.2789 134.399 87.1597 135.095C88.0405 135.792 88.4284 136.765 88.0274 137.265Z" fill="url(#paint21_linear_3169_6278)"/>
<g style="mix-blend-mode:hard-light" opacity="0.5">
<path d="M241.33 60.9665C238.26 50.2762 216.881 48.869 199.47 49.5663L198.78 49.5993C191.207 49.9248 183.394 50.613 174.719 51.8001C175.551 52.8271 176.913 54.8221 176.913 54.8221C184.711 53.8084 192.079 53.146 198.923 52.8498L199.613 52.8167C221.882 51.9173 236.302 55.2979 238.185 61.8592C240.068 68.4204 229.609 78.8544 210.213 89.752C161.463 117.161 100.353 134.4 44.487 136.748C22.2171 137.648 7.80369 134.269 5.92261 127.701C4.04154 121.134 14.4984 110.706 33.8942 99.8084C40.2076 96.2599 46.6932 92.8702 54.3649 89.4339C54.5281 87.4914 54.6587 85.6142 54.6587 85.6142C46.2394 89.3266 39.1426 93.1231 32.2834 96.9813C17.1376 105.479 -0.287146 117.885 2.78096 128.581C5.84905 139.278 27.2287 140.685 44.6415 139.981L45.3309 139.948C101.486 137.478 162.793 120.138 211.809 92.6091C226.973 84.0688 244.398 71.6632 241.33 60.9665Z" fill="url(#paint22_radial_3169_6278)" style="mix-blend-mode:screen"/>
</g>
<defs>
<linearGradient id="paint0_linear_3169_6278" x1="104.16" y1="39.4442" x2="121.421" y2="159.719" gradientUnits="userSpaceOnUse">
<stop stop-color="#B2A6FF"/>
<stop offset="1" stop-color="#295494"/>
</linearGradient>
<radialGradient id="paint1_radial_3169_6278" cx="0" cy="0" r="1" gradientUnits="userSpaceOnUse" gradientTransform="translate(127.705 51.875) scale(115.667 115.667)">
<stop stop-color="#F20074"/>
<stop offset="0.14" stop-color="#ED0376"/>
<stop offset="0.31" stop-color="#DF0B7D"/>
<stop offset="0.49" stop-color="#C71887"/>
<stop offset="0.67" stop-color="#A62A96"/>
<stop offset="0.87" stop-color="#7B42A9"/>
<stop offset="0.9" stop-color="#7446AC"/>
</radialGradient>
<linearGradient id="paint2_linear_3169_6278" x1="179.813" y1="105.648" x2="68.9913" y2="140.967" gradientUnits="userSpaceOnUse">
<stop stop-color="#6846AF"/>
<stop offset="1" stop-color="#9242AE"/>
</linearGradient>
<linearGradient id="paint3_linear_3169_6278" x1="52.9355" y1="88.0112" x2="79.2624" y2="138.557" gradientUnits="userSpaceOnUse">
<stop stop-color="#4E4BCF"/>
<stop offset="1" stop-color="#9D4BCF"/>
</linearGradient>
<linearGradient id="paint4_linear_3169_6278" x1="62.9136" y1="73.936" x2="61.2438" y2="106.126" gradientUnits="userSpaceOnUse">
<stop stop-color="#4E4BCF"/>
<stop offset="1" stop-color="#9D4BCF"/>
</linearGradient>
<linearGradient id="paint5_linear_3169_6278" x1="133.397" y1="56.8143" x2="101.213" y2="59.1132" gradientUnits="userSpaceOnUse">
<stop stop-color="#4E4BCF"/>
<stop offset="1" stop-color="#9D4BCF"/>
</linearGradient>
<linearGradient id="paint6_linear_3169_6278" x1="87.9881" y1="61.781" x2="69.4327" y2="79.0852" gradientUnits="userSpaceOnUse">
<stop stop-color="#4E4BCF"/>
<stop offset="1" stop-color="#9D4BCF"/>
</linearGradient>
<linearGradient id="paint7_linear_3169_6278" x1="110.549" y1="140.473" x2="110.332" y2="157.13" gradientUnits="userSpaceOnUse">
<stop stop-color="#4E4BCF"/>
<stop offset="1" stop-color="#9D4BCF"/>
</linearGradient>
<linearGradient id="paint8_linear_3169_6278" x1="166.98" y1="107.892" x2="166.408" y2="128.407" gradientUnits="userSpaceOnUse">
<stop stop-color="#4E4BCF"/>
<stop offset="1" stop-color="#9D4BCF"/>
</linearGradient>
<linearGradient id="paint9_linear_3169_6278" x1="72.8064" y1="92.7055" x2="72.0992" y2="108.931" gradientUnits="userSpaceOnUse">
<stop stop-color="#4E4BCF"/>
<stop offset="1" stop-color="#9D4BCF"/>
</linearGradient>
<linearGradient id="paint10_linear_3169_6278" x1="150.914" y1="130.491" x2="150.755" y2="138.894" gradientUnits="userSpaceOnUse">
<stop stop-color="#4E4BCF"/>
<stop offset="1" stop-color="#9D4BCF"/>
</linearGradient>
<linearGradient id="paint11_linear_3169_6278" x1="155.053" y1="126.791" x2="154.955" y2="131.936" gradientUnits="userSpaceOnUse">
<stop stop-color="#4E4BCF"/>
<stop offset="1" stop-color="#9D4BCF"/>
</linearGradient>
<linearGradient id="paint12_linear_3169_6278" x1="81.6461" y1="108.605" x2="81.2206" y2="121.108" gradientUnits="userSpaceOnUse">
<stop stop-color="#4E4BCF"/>
<stop offset="1" stop-color="#9D4BCF"/>
</linearGradient>
<linearGradient id="paint13_linear_3169_6278" x1="85.6666" y1="117.477" x2="85.4104" y2="125.023" gradientUnits="userSpaceOnUse">
<stop stop-color="#4E4BCF"/>
<stop offset="1" stop-color="#9D4BCF"/>
</linearGradient>
<linearGradient id="paint14_linear_3169_6278" x1="68.6551" y1="91.4926" x2="68.3678" y2="98.139" gradientUnits="userSpaceOnUse">
<stop stop-color="#4E4BCF"/>
<stop offset="1" stop-color="#9D4BCF"/>
</linearGradient>
<linearGradient id="paint15_linear_3169_6278" x1="175.557" y1="71.7861" x2="175.145" y2="81.3733" gradientUnits="userSpaceOnUse">
<stop stop-color="#4E4BCF"/>
<stop offset="1" stop-color="#9D4BCF"/>
</linearGradient>
<linearGradient id="paint16_linear_3169_6278" x1="177.675" y1="86.0997" x2="171.325" y2="99.4963" gradientUnits="userSpaceOnUse">
<stop stop-color="#4E4BCF"/>
<stop offset="1" stop-color="#9D4BCF"/>
</linearGradient>
<linearGradient id="paint17_linear_3169_6278" x1="174.608" y1="80.0606" x2="174.34" y2="86.3298" gradientUnits="userSpaceOnUse">
<stop stop-color="#4E4BCF"/>
<stop offset="1" stop-color="#9D4BCF"/>
</linearGradient>
<linearGradient id="paint18_linear_3169_6278" x1="167.224" y1="94.8752" x2="162.039" y2="103.066" gradientUnits="userSpaceOnUse">
<stop stop-color="#4E4BCF"/>
<stop offset="1" stop-color="#9D4BCF"/>
</linearGradient>
<linearGradient id="paint19_linear_3169_6278" x1="90.7508" y1="136.36" x2="90.5471" y2="145.591" gradientUnits="userSpaceOnUse">
<stop stop-color="#4E4BCF"/>
<stop offset="1" stop-color="#9D4BCF"/>
</linearGradient>
<linearGradient id="paint20_linear_3169_6278" x1="97.6558" y1="140.684" x2="97.5322" y2="146.291" gradientUnits="userSpaceOnUse">
<stop stop-color="#4E4BCF"/>
<stop offset="1" stop-color="#9D4BCF"/>
</linearGradient>
<linearGradient id="paint21_linear_3169_6278" x1="86.7692" y1="132.178" x2="86.6455" y2="137.785" gradientUnits="userSpaceOnUse">
<stop stop-color="#4E4BCF"/>
<stop offset="1" stop-color="#9D4BCF"/>
</linearGradient>
<radialGradient id="paint22_radial_3169_6278" cx="0" cy="0" r="1" gradientUnits="userSpaceOnUse" gradientTransform="translate(110.767 202.95) rotate(-60.8207) scale(249.453 191.499)">
<stop stop-color="#D1D7EE"/>
<stop offset="0.34" stop-color="#A6AFFF"/>
<stop offset="1" stop-color="#8875FF" stop-opacity="0.25"/>
</radialGradient>
</defs>
</svg>
